<svg xmlns="http://www.w3.org/2000/svg" width="1297" height="660" viewBox="0 0 1297 660" fill="none"><g clip-path="url(#clip0_61_883)"><path d="M1222.46 378.42H1171.65C1169.33 378.42 1167.45 380.3 1167.45 382.62V430.33C1167.45 432.649 1169.33 434.53 1171.65 434.53H1222.46C1224.78 434.53 1226.66 432.649 1226.66 430.33V382.62C1226.66 380.3 1224.78 378.42 1222.46 378.42Z" fill="#20AFA4"/><path d="M1190.69 422.45C1186.55 421.29 1184.48 418.623 1184.49 414.45V411C1184.49 408.68 1183.55 407.52 1181.69 407.52V403.61C1183.56 403.61 1184.49 402.443 1184.49 400.11V396.49C1184.44 394.688 1185.01 392.923 1186.1 391.49C1187.31 390.111 1188.91 389.139 1190.69 388.71L1191.78 391.71C1190.33 392.263 1189.58 393.81 1189.52 396.35V400.09C1189.6 401.214 1189.34 402.335 1188.77 403.307C1188.2 404.28 1187.35 405.058 1186.33 405.54C1187.35 406.022 1188.2 406.801 1188.77 407.776C1189.34 408.75 1189.6 409.874 1189.52 411V414.72C1189.58 417.26 1190.33 418.807 1191.78 419.36L1190.69 422.41V422.45Z" fill="white"/><path d="M1202 419.399C1203.45 418.853 1204.21 417.306 1204.26 414.759V410.999C1204.18 409.874 1204.44 408.75 1205.02 407.778C1205.59 406.806 1206.45 406.032 1207.47 405.559C1206.45 405.084 1205.59 404.308 1205.02 403.334C1204.44 402.361 1204.18 401.236 1204.26 400.109V396.369C1204.2 393.829 1203.45 392.283 1202 391.729L1203.09 388.729C1204.9 389.149 1206.52 390.137 1207.73 391.549C1208.82 393.029 1209.37 394.835 1209.29 396.669V400.139C1209.29 402.473 1210.22 403.639 1212.08 403.639V407.549C1210.22 407.549 1209.29 408.703 1209.29 411.009V414.679C1209.21 418.726 1207.14 421.319 1203.09 422.459L1202 419.399Z" fill="white"/><path fill-rule="evenodd" clip-rule="evenodd" d="M1187.4 365.69L1234.54 387.62C1236.33 388.461 1237.72 389.975 1238.4 391.833C1239.08 393.691 1239 395.742 1238.17 397.54L1216.24 444.68C1215.4 446.471 1213.89 447.858 1212.03 448.538C1210.17 449.218 1208.12 449.136 1206.32 448.31L1159.18 426.38C1157.39 425.54 1156 424.026 1155.32 422.168C1154.64 420.31 1154.72 418.258 1155.55 416.46L1177.48 369.32C1178.32 367.529 1179.83 366.143 1181.69 365.463C1183.55 364.783 1185.6 364.865 1187.4 365.69ZM1233.15 390.64L1186 368.71C1185 368.255 1183.87 368.208 1182.84 368.58C1181.81 368.952 1180.97 369.718 1180.5 370.71L1158.57 417.86C1158.11 418.856 1158.07 419.991 1158.44 421.02C1158.81 422.052 1159.58 422.893 1160.57 423.36L1207.72 445.29C1208.72 445.746 1209.85 445.792 1210.88 445.42C1211.91 445.048 1212.75 444.282 1213.22 443.29L1235.15 396.14C1235.61 395.145 1235.65 394.01 1235.28 392.98C1234.91 391.949 1234.14 391.107 1233.15 390.64Z" fill="#F6FFFF"/><path fill-rule="evenodd" clip-rule="evenodd" d="M544.25 284.56L563.42 403.23H631.32H678.45H746.35L765.51 284.56H678.45H631.32H544.25Z" fill="#152F46"/><path fill-rule="evenodd" clip-rule="evenodd" d="M302.51 113.94L159.48 132C157.71 132.227 156.103 133.146 155.008 134.555C153.914 135.964 153.422 137.749 153.64 139.52L187.25 405.71C187.477 407.482 188.397 409.091 189.808 410.186C191.22 411.28 193.008 411.771 194.78 411.55L337.78 393.49C339.549 393.263 341.156 392.344 342.249 390.934C343.341 389.525 343.831 387.74 343.61 385.97L310 119.77C309.773 118.007 308.858 116.405 307.455 115.313C306.052 114.221 304.275 113.728 302.51 113.94Z" fill="#152F46"/><path d="M314.829 289.736C315.05 256.269 288.099 228.958 254.632 228.736C221.164 228.514 193.853 255.465 193.631 288.933C193.409 322.4 220.36 349.711 253.828 349.933C287.296 350.155 314.607 323.204 314.829 289.736Z" fill="#19364E"/><path fill-rule="evenodd" clip-rule="evenodd" d="M254.23 266.62C249.736 266.628 245.346 267.968 241.613 270.47C237.88 272.973 234.973 276.525 233.259 280.679C231.545 284.834 231.1 289.402 231.982 293.809C232.863 298.216 235.031 302.262 238.212 305.437C241.392 308.612 245.442 310.772 249.85 311.646C254.258 312.52 258.827 312.068 262.978 310.346C267.129 308.625 270.676 305.711 273.172 301.974C275.668 298.237 277 293.844 277 289.35C277 286.362 276.411 283.403 275.266 280.643C274.121 277.882 272.443 275.375 270.328 273.263C268.214 271.152 265.703 269.479 262.941 268.339C260.178 267.199 257.218 266.615 254.23 266.62Z" fill="#152F46"/><path d="M268.867 193.288C272.001 175.906 260.451 159.275 243.069 156.141C225.687 153.007 209.056 164.558 205.922 181.94C202.788 199.321 214.339 215.953 231.721 219.086C249.102 222.22 265.734 210.67 268.867 193.288Z" fill="#274964"/><path fill-rule="evenodd" clip-rule="evenodd" d="M237.4 175.62C235.027 175.62 232.706 176.324 230.733 177.642C228.76 178.961 227.222 180.835 226.313 183.028C225.405 185.221 225.167 187.633 225.63 189.961C226.094 192.289 227.236 194.427 228.915 196.105C230.593 197.784 232.731 198.927 235.059 199.39C237.387 199.853 239.799 199.615 241.992 198.707C244.185 197.798 246.059 196.26 247.378 194.287C248.696 192.314 249.4 189.993 249.4 187.62C249.4 184.438 248.136 181.385 245.885 179.135C243.635 176.884 240.583 175.62 237.4 175.62Z" fill="#19364E"/><path fill-rule="evenodd" clip-rule="evenodd" d="M1005.69 114.07L1148.69 132.13C1150.46 132.36 1152.07 133.28 1153.16 134.691C1154.26 136.102 1154.75 137.888 1154.53 139.66L1120.91 405.85C1120.68 407.619 1119.76 409.225 1118.35 410.319C1116.94 411.413 1115.16 411.906 1113.39 411.69L970.39 393.62C968.62 393.393 967.013 392.474 965.918 391.065C964.824 389.656 964.332 387.871 964.55 386.1L998.17 119.91C998.397 118.14 999.316 116.533 1000.73 115.438C1002.13 114.344 1003.92 113.852 1005.69 114.07Z" fill="#152F46"/><path d="M1053.96 350.08C1087.43 350.08 1114.56 322.948 1114.56 289.48C1114.56 256.011 1087.43 228.88 1053.96 228.88C1020.49 228.88 993.36 256.011 993.36 289.48C993.36 322.948 1020.49 350.08 1053.96 350.08Z" fill="#19364E"/><path fill-rule="evenodd" clip-rule="evenodd" d="M1054 266.75C1058.5 266.748 1062.89 268.079 1066.63 270.576C1070.37 273.072 1073.29 276.622 1075.01 280.775C1076.73 284.928 1077.18 289.498 1076.3 293.908C1075.43 298.318 1073.26 302.369 1070.09 305.549C1066.91 308.729 1062.86 310.895 1058.45 311.773C1054.04 312.65 1049.47 312.201 1045.31 310.481C1041.16 308.761 1037.61 305.847 1035.11 302.109C1032.61 298.371 1031.28 293.976 1031.28 289.48C1031.28 283.453 1033.67 277.673 1037.93 273.411C1042.19 269.149 1047.97 266.753 1054 266.75Z" fill="#152F46"/><path d="M1078.23 218.871C1095.41 214.772 1106.01 197.522 1101.91 180.343C1097.81 163.163 1080.56 152.559 1063.38 156.658C1046.2 160.757 1035.6 178.007 1039.7 195.187C1043.8 212.367 1061.05 222.971 1078.23 218.871Z" fill="#274964"/><path fill-rule="evenodd" clip-rule="evenodd" d="M1070.8 175.75C1073.17 175.75 1075.49 176.454 1077.47 177.772C1079.44 179.091 1080.98 180.965 1081.89 183.158C1082.79 185.351 1083.03 187.763 1082.57 190.091C1082.11 192.419 1080.96 194.557 1079.29 196.235C1077.61 197.914 1075.47 199.056 1073.14 199.519C1070.81 199.982 1068.4 199.745 1066.21 198.837C1064.02 197.928 1062.14 196.39 1060.82 194.417C1059.5 192.443 1058.8 190.123 1058.8 187.75C1058.8 184.567 1060.06 181.515 1062.31 179.265C1064.57 177.014 1067.62 175.75 1070.8 175.75Z" fill="#19364E"/><path d="M347.22 216.93H323.41V224.92H347.22V216.93Z" fill="#0D85D6"/><path d="M371.04 232.92H323.41V240.91H371.04V232.92Z" fill="#00C4DB"/><path d="M347.22 248.899H323.41V256.889H347.22V248.899Z" fill="#B5E98D"/><path d="M371.04 352.09H323.41V360.08H371.04V352.09Z" fill="#12D591"/><path d="M347.22 367.399H323.41V375.389H347.22V367.399Z" fill="#B5E98D"/><path fill-rule="evenodd" clip-rule="evenodd" d="M405.53 364.49H903.93C908.51 364.49 912.58 360.82 912.76 356.42C913.82 330.746 914.887 304.876 915.96 278.81C917.05 252.53 918.15 225.98 919.25 199.3C920.357 172.346 921.48 145.166 922.62 117.76C923.76 90.1263 924.91 62.2463 926.07 34.1197C926.1 32.9784 925.898 31.843 925.478 30.7816C925.057 29.7203 924.426 28.7551 923.623 27.9441C922.819 27.1331 921.86 26.4932 920.802 26.0628C919.745 25.6323 918.611 25.4204 917.47 25.4397H392C390.878 25.4242 389.764 25.6399 388.729 26.0733C387.693 26.5067 386.758 27.1487 385.981 27.9591C385.204 28.7696 384.603 29.7312 384.214 30.7842C383.825 31.8372 383.657 32.9589 383.72 34.0797L387.17 117.69C388.297 145.123 389.42 172.326 390.54 199.3C391.64 226.02 392.74 252.6 393.82 278.88C394.9 304.92 395.97 330.786 397.03 356.48C397.162 358.646 398.115 360.679 399.694 362.168C401.273 363.656 403.36 364.486 405.53 364.49Z" fill="#F6FFFF"/><path fill-rule="evenodd" clip-rule="evenodd" d="M832.08 364.49H903.93C908.51 364.49 912.58 360.82 912.76 356.42C913.82 330.746 914.887 304.876 915.96 278.81C917.05 252.53 918.15 225.98 919.25 199.3C920.357 172.346 921.48 145.166 922.62 117.76C923.76 90.1263 924.91 62.2463 926.07 34.1197C926.1 32.9784 925.898 31.843 925.478 30.7816C925.057 29.7203 924.426 28.7551 923.623 27.9441C922.819 27.1331 921.86 26.4932 920.802 26.0628C919.745 25.6323 918.611 25.4204 917.47 25.4397H636.33L832.08 364.49Z" fill="#76A2C3"/><path fill-rule="evenodd" clip-rule="evenodd" d="M410.91 349.259H654.68C695.26 349.259 735.88 349.259 776.54 349.259H898.54C898.971 349.268 899.388 349.111 899.706 348.821C900.025 348.531 900.219 348.129 900.25 347.699C901.203 323.419 902.163 298.963 903.13 274.329C904.103 249.509 905.083 224.509 906.07 199.329C907.07 173.936 908.07 148.326 909.07 122.499C910.09 96.4994 911.12 70.2694 912.16 43.8094C912.167 43.5874 912.128 43.3662 912.047 43.1594C911.966 42.9526 911.843 42.7645 911.687 42.6064C911.531 42.4484 911.344 42.3237 911.139 42.24C910.933 42.1563 910.712 42.1153 910.49 42.1194C867.823 42.1194 825.157 42.1194 782.49 42.1194H654.67H526.77H398.92C398.698 42.1152 398.478 42.1563 398.273 42.2401C398.067 42.3239 397.881 42.4487 397.726 42.6069C397.571 42.7651 397.449 42.9534 397.369 43.1601C397.289 43.3669 397.252 43.5878 397.26 43.8094C398.3 70.2561 399.33 96.4994 400.35 122.539C401.357 148.339 402.357 173.959 403.35 199.399C404.343 224.619 405.327 249.653 406.3 274.499C407.3 299.109 408.23 323.599 409.18 347.839C409.241 348.248 409.452 348.62 409.772 348.882C410.091 349.144 410.497 349.279 410.91 349.259Z" fill="#19364E"/><path fill-rule="evenodd" clip-rule="evenodd" d="M432.89 325.26H546.24C545.92 306.473 545.587 287.6 545.24 268.64C544.92 249.64 544.58 230.39 544.24 211.1C543.9 191.81 543.51 172.1 543.17 152.48C542.83 132.86 542.48 112.84 542.17 92.8398H424.67C425.37 112.84 426.07 132.72 426.77 152.48C427.47 172.113 428.163 191.663 428.85 211.13C429.53 230.39 430.21 249.65 430.85 268.67C431.49 287.69 432.22 306.47 432.89 325.26Z" fill="#2B4D69"/><path fill-rule="evenodd" clip-rule="evenodd" d="M441 229.999H456.73C456.73 228.709 456.65 227.389 456.61 226.069H440.85C440.9 227.339 440.94 228.659 441 229.999Z" fill="#00C4DB"/><path fill-rule="evenodd" clip-rule="evenodd" d="M446.3 237.85H451.92C451.92 236.53 451.84 235.24 451.79 233.92H446.17C446.21 235.24 446.25 236.53 446.3 237.85Z" fill="#F6FFFF"/><path fill-rule="evenodd" clip-rule="evenodd" d="M456 237.85H474C474 236.53 473.92 235.24 473.89 233.92H455.89C455.88 235.24 455.93 236.53 456 237.85Z" fill="#F6FFFF"/><path fill-rule="evenodd" clip-rule="evenodd" d="M477.62 237.85H495.62C495.62 236.53 495.55 235.24 495.52 233.92H477.52C477.55 235.24 477.58 236.53 477.62 237.85Z" fill="#F6FFFF"/><path fill-rule="evenodd" clip-rule="evenodd" d="M499.32 237.85H535.85C535.85 236.53 535.8 235.21 535.78 233.92H499.23C499.26 235.24 499.29 236.53 499.32 237.85Z" fill="#F6FFFF"/><path fill-rule="evenodd" clip-rule="evenodd" d="M477.9 247.92H495.9C495.9 246.56 495.83 245.28 495.8 243.92H477.8C477.83 245.28 477.86 246.56 477.9 247.92Z" fill="#12D591"/><path fill-rule="evenodd" clip-rule="evenodd" d="M499.57 247.919C505.663 247.919 511.75 247.919 517.83 247.919C517.83 246.589 517.77 245.309 517.75 243.979H499.47C499.51 245.279 499.54 246.559 499.57 247.919Z" fill="#F6FFFF"/><path fill-rule="evenodd" clip-rule="evenodd" d="M478.18 257.89H496.18C496.18 256.6 496.11 255.31 496.08 254.02H478.08C478.11 255.31 478.14 256.6 478.18 257.89Z" fill="#12D591"/><path fill-rule="evenodd" clip-rule="evenodd" d="M499.81 257.89H536.22C536.22 256.6 536.22 255.31 536.15 253.99C523.99 253.99 511.847 253.99 499.72 253.99L499.81 257.89Z" fill="#F6FFFF"/><path fill-rule="evenodd" clip-rule="evenodd" d="M478.46 267.92C484.46 267.92 490.38 267.92 496.4 267.92C496.4 266.6 496.33 265.31 496.3 263.99H478.35C478.38 265.28 478.42 266.57 478.46 267.92Z" fill="#F6FFFF"/><path fill-rule="evenodd" clip-rule="evenodd" d="M500.06 267.89H506.13C506.13 266.57 506.06 265.28 506.03 263.96H500C500 265.28 500 266.57 500.06 267.89Z" fill="#F6FFFF"/><path fill-rule="evenodd" clip-rule="evenodd" d="M478.73 277.859C484.73 277.859 490.64 277.859 496.65 277.859C496.65 276.579 496.58 275.319 496.55 274.029H478.63C478.66 275.279 478.7 276.569 478.73 277.859Z" fill="#F6FFFF"/><path fill-rule="evenodd" clip-rule="evenodd" d="M500.3 277.82H518.48L518.39 273.96C512.33 273.96 506.27 273.96 500.21 273.96C500.24 275.28 500.27 276.54 500.3 277.82Z" fill="#F6FFFF"/><path fill-rule="evenodd" clip-rule="evenodd" d="M432.89 325.26H546.24C546.24 324.17 546.24 323.09 546.24 322C508.427 322.04 470.62 322.063 432.82 322.07C432.81 323.09 432.85 324.17 432.89 325.26Z" fill="#F6FFFF"/><path fill-rule="evenodd" clip-rule="evenodd" d="M563.12 197.33H678.74C678.8 180.14 678.87 162.82 678.93 145.46C678.99 128.1 679.06 110.46 679.13 92.8398H561.57C561.88 110.44 562.13 128 562.38 145.43C562.63 162.86 562.88 180.14 563.12 197.33Z" fill="#20A1F7"/><path fill-rule="evenodd" clip-rule="evenodd" d="M563.12 197.33H675.38L675.56 148.62C675.63 131.19 675.69 113.62 675.76 96H561.63C561.91 112.54 562.16 129.017 562.38 145.43C562.633 162.823 562.88 180.123 563.12 197.33Z" fill="#0D85D6"/><path fill-rule="evenodd" clip-rule="evenodd" d="M563.12 197.33H678.74C678.74 196.33 678.74 195.33 678.74 194.33H563.08C563.09 195.33 563.11 196.32 563.12 197.33Z" fill="#F6FFFF"/><path fill-rule="evenodd" clip-rule="evenodd" d="M568.9 186.38H587C587 185.03 587 183.7 587 182.38H568.84C568.86 183.7 568.88 185 568.9 186.38Z" fill="#F6FFFF"/><path fill-rule="evenodd" clip-rule="evenodd" d="M590.76 190H594.76C594.76 186.27 594.69 182.5 594.65 178.77H590.65C590.69 182.48 590.73 186.25 590.76 190Z" fill="#F6FFFF"/><path fill-rule="evenodd" clip-rule="evenodd" d="M612.61 186.38H649.43V182.38H612.58C612.59 183.7 612.6 185 612.61 186.38Z" fill="#F6FFFF"/><path fill-rule="evenodd" clip-rule="evenodd" d="M596.88 187H600.88C600.88 185.21 600.88 183.48 600.88 181.75H596.88C596.85 183.47 596.86 185.2 596.88 187Z" fill="#F6FFFF"/><path fill-rule="evenodd" clip-rule="evenodd" d="M604.28 185.64H608.28C608.28 184.76 608.28 183.94 608.28 183.13H604.28C604.27 183.94 604.28 184.76 604.28 185.64Z" fill="#F6FFFF"/><path fill-rule="evenodd" clip-rule="evenodd" d="M568.65 168.109H577.74C577.74 166.749 577.74 165.399 577.74 164.109H568.6C568.57 165.399 568.58 166.749 568.65 168.109Z" fill="#12D591"/><path fill-rule="evenodd" clip-rule="evenodd" d="M580.77 168.109H589.91C589.91 166.749 589.91 165.399 589.91 164.109H580.76C580.74 165.399 580.75 166.749 580.77 168.109Z" fill="#F6FFFF"/><path fill-rule="evenodd" clip-rule="evenodd" d="M592.94 168.109H602C602 166.749 602 165.399 602 164.109H592.9C592.91 165.399 592.92 166.749 592.94 168.109Z" fill="#F6FFFF"/><path fill-rule="evenodd" clip-rule="evenodd" d="M568.48 159.33H577.63C577.63 157.97 577.63 156.65 577.63 155.33H568.47C568.45 156.65 568.47 158 568.48 159.33Z" fill="#12D591"/><path fill-rule="evenodd" clip-rule="evenodd" d="M580.67 159.33H589.82C589.82 157.97 589.82 156.65 589.82 155.33H580.66C580.64 156.65 580.65 158 580.67 159.33Z" fill="#F6FFFF"/><path fill-rule="evenodd" clip-rule="evenodd" d="M592.85 159.33H602C602 157.97 602 156.65 602 155.33H592.9C592.83 156.65 592.84 158 592.85 159.33Z" fill="#F6FFFF"/><path fill-rule="evenodd" clip-rule="evenodd" d="M568.36 150.509H577.53C577.53 149.159 577.53 147.769 577.53 146.439H568.36C568.33 147.769 568.35 149.119 568.36 150.509Z" fill="#00C4DB"/><path fill-rule="evenodd" clip-rule="evenodd" d="M580.57 150.509H589.73C589.73 149.159 589.73 147.769 589.73 146.439H580.56C580.53 147.769 580.55 149.159 580.57 150.509Z" fill="#90FFFF"/><path fill-rule="evenodd" clip-rule="evenodd" d="M592.77 150.509H601.88C601.88 149.159 601.88 147.769 601.88 146.439H592.77C592.74 147.769 592.75 149.159 592.77 150.509Z" fill="#90FFFF"/><path fill-rule="evenodd" clip-rule="evenodd" d="M568.25 141.66H577.42C577.42 140.31 577.42 138.98 577.32 137.66H568.19L568.25 141.66Z" fill="#B5E98D"/><path fill-rule="evenodd" clip-rule="evenodd" d="M580.46 141.66H589.64C589.64 140.31 589.64 138.98 589.64 137.66H580.46C580.43 139 580.45 140.31 580.46 141.66Z" fill="#F6FFFF"/><path fill-rule="evenodd" clip-rule="evenodd" d="M592.68 141.66H601.8V137.66H592.67C592.66 139 592.67 140.31 592.68 141.66Z" fill="#F6FFFF"/><path fill-rule="evenodd" clip-rule="evenodd" d="M568.13 132.779H577.26C577.26 131.459 577.26 130.099 577.26 128.779H568.12C568.09 130.099 568.11 131.459 568.13 132.779Z" fill="#B5E98D"/><path fill-rule="evenodd" clip-rule="evenodd" d="M580.36 132.779H589.55C589.55 131.459 589.55 130.099 589.55 128.779H580.35C580.33 130.099 580.35 131.459 580.36 132.779Z" fill="#F6FFFF"/><path fill-rule="evenodd" clip-rule="evenodd" d="M592.59 132.779H601.73C601.73 131.459 601.73 130.099 601.73 128.779H592.59C592.57 130.099 592.58 131.459 592.59 132.779Z" fill="#F6FFFF"/><path fill-rule="evenodd" clip-rule="evenodd" d="M620.46 159.33H639.4C639.4 157.97 639.4 156.65 639.4 155.33H620.44C620.45 156.65 620.46 158 620.46 159.33Z" fill="#F6FFFF"/><path fill-rule="evenodd" clip-rule="evenodd" d="M620.42 150.509H639.42C639.42 149.159 639.42 147.799 639.42 146.439H620.42V150.509Z" fill="#F6FFFF"/><path fill-rule="evenodd" clip-rule="evenodd" d="M620.37 141.66H639.37C639.37 140.34 639.37 138.98 639.37 137.66H620.37C620.35 139 620.36 140.34 620.37 141.66Z" fill="#F6FFFF"/><path fill-rule="evenodd" clip-rule="evenodd" d="M643.87 159.33H651.69V155.33H643.86C643.87 156.65 643.87 158 643.87 159.33Z" fill="#F6FFFF"/><path fill-rule="evenodd" clip-rule="evenodd" d="M643.86 150.51H651.69V146.51H643.85C643.85 147.8 643.86 149.16 643.86 150.51Z" fill="#F6FFFF"/><path fill-rule="evenodd" clip-rule="evenodd" d="M406.63 62.2902H471.22C471.11 58.5002 471.01 54.7002 470.9 50.9402C449.313 50.9002 427.747 50.9002 406.2 50.9402C406.34 54.7135 406.483 58.4968 406.63 62.2902Z" fill="#2B4D69"/><path fill-rule="evenodd" clip-rule="evenodd" d="M478.51 62.2895H543.15C543.09 58.4995 543.02 54.6995 542.96 50.9395H478.2C478.3 54.6995 478.41 58.4995 478.51 62.2895Z" fill="#2B4D69"/><path fill-rule="evenodd" clip-rule="evenodd" d="M550.5 62.2894C571.99 62.2894 593.59 62.2894 615.14 62.2894C615.14 58.4594 615.14 54.6894 615.07 50.8994H550.26C550.32 54.6994 550.43 58.4994 550.5 62.2894Z" fill="#2B4D69"/><path fill-rule="evenodd" clip-rule="evenodd" d="M622.43 62.3295H687C687 58.5295 687 54.7295 687.05 50.9395H622.35C622.39 54.7295 622.41 58.4995 622.43 62.3295Z" fill="#2B4D69"/><path fill-rule="evenodd" clip-rule="evenodd" d="M694.31 62.3295H759L759.18 50.9395H694.38C694.353 54.7328 694.33 58.5295 694.31 62.3295Z" fill="#2B4D69"/><path fill-rule="evenodd" clip-rule="evenodd" d="M766.24 62.3295H830.88C830.993 58.5295 831.097 54.7328 831.19 50.9395H766.43C766.37 54.7328 766.307 58.5295 766.24 62.3295Z" fill="#2B4D69"/><path fill-rule="evenodd" clip-rule="evenodd" d="M838.17 62.3295H902.82C902.96 58.5295 903.103 54.7328 903.25 50.9395H838.49C838.39 54.7328 838.283 58.5295 838.17 62.3295Z" fill="#2B4D69"/><path fill-rule="evenodd" clip-rule="evenodd" d="M420.71 58.9396H445.4C445.4 57.7196 445.33 56.4996 445.29 55.3096C437.02 55.3096 428.75 55.3096 420.58 55.3096C420.62 56.4996 420.67 57.7196 420.71 58.9396Z" fill="#F6FFFF"/><path fill-rule="evenodd" clip-rule="evenodd" d="M450.7 58.9396H457.24C457.24 57.7196 457.16 56.4996 457.13 55.3096H450.59C450.62 56.4996 450.66 57.7196 450.7 58.9396Z" fill="#F6FFFF"/><path fill-rule="evenodd" clip-rule="evenodd" d="M430.71 71.7198H436.16C436.11 70.2998 436.07 68.9398 436.02 67.5098H430.57C430.62 68.9398 430.67 70.2998 430.71 71.7198Z" fill="#90FFFF"/><path fill-rule="evenodd" clip-rule="evenodd" d="M431 80.4701H436.44C436.44 79.0801 436.35 77.7201 436.3 76.3301H430.86C430.92 77.7201 431 79.0801 431 80.4701Z" fill="#F6FFFF"/><path fill-rule="evenodd" clip-rule="evenodd" d="M439.15 80.4701H474.15C474.15 79.0801 474.07 77.7201 474.03 76.3301H439C439.06 77.7201 439.1 79.0801 439.15 80.4701Z" fill="#F6FFFF"/><path fill-rule="evenodd" clip-rule="evenodd" d="M477 80.4694H490.3C490.3 79.0794 490.23 77.7194 490.2 76.3594C485.78 76.3594 481.31 76.3594 476.89 76.3594C476.88 77.7194 476.91 79.0794 477 80.4694Z" fill="#F6FFFF"/><path fill-rule="evenodd" clip-rule="evenodd" d="M702.57 331.43H700.57C700.723 310.37 700.877 289.18 701.03 267.86C701.19 246.4 701.347 224.79 701.5 203.03C701.66 181.13 701.823 159.08 701.99 136.88C702.15 114.54 702.31 91.9899 702.48 69.3799H704.53C704.36 91.9899 704.18 114.54 704.01 136.88C703.85 159.06 703.683 181.11 703.51 203.03C703.35 224.763 703.187 246.373 703.02 267.86C702.887 289.18 702.737 310.37 702.57 331.43Z" fill="#F6FFFF"/><path fill-rule="evenodd" clip-rule="evenodd" d="M631.36 312H678.31C678.37 295.42 678.433 278.753 678.5 262C678.56 245.153 678.62 228.223 678.68 211.21H631C631.06 228.23 631.123 245.16 631.19 262C631.237 278.753 631.293 295.42 631.36 312Z" fill="#0D85D6"/><path fill-rule="evenodd" clip-rule="evenodd" d="M631.36 312H678.31C678.31 311.05 678.31 310.11 678.31 309.16H631.31C631.35 310.14 631.35 311.08 631.36 312Z" fill="#F6FFFF"/><path fill-rule="evenodd" clip-rule="evenodd" d="M637.62 304.92H642.35V301.05H637.61C637.61 302.3 637.62 303.59 637.62 304.92Z" fill="#F6FFFF"/><path fill-rule="evenodd" clip-rule="evenodd" d="M637.6 298.17H642.34C642.34 296.88 642.34 295.59 642.34 294.3C640.73 294.3 639.17 294.3 637.6 294.3C637.6 295.59 637.6 296.88 637.6 298.17Z" fill="#F6FFFF"/><path fill-rule="evenodd" clip-rule="evenodd" d="M637.58 291.42H642.33C642.33 290.13 642.33 288.84 642.33 287.55H637.58C637.58 288.84 637.58 290.13 637.58 291.42Z" fill="#F6FFFF"/><path fill-rule="evenodd" clip-rule="evenodd" d="M637.57 284.67H642.31C642.31 283.35 642.31 282.06 642.31 280.77H637.57C637.56 282.06 637.56 283.35 637.57 284.67Z" fill="#F6FFFF"/><path fill-rule="evenodd" clip-rule="evenodd" d="M637.55 277.86H642.3C642.3 276.57 642.3 275.28 642.3 273.99H637.55C637.54 275.28 637.54 276.57 637.55 277.86Z" fill="#F6FFFF"/><path fill-rule="evenodd" clip-rule="evenodd" d="M637.53 271.08H642.29C642.29 269.76 642.29 268.47 642.29 267.18H637.53C637.52 268.47 637.52 269.76 637.53 271.08Z" fill="#F6FFFF"/><path fill-rule="evenodd" clip-rule="evenodd" d="M637.51 264.259H642.27C642.27 262.939 642.27 261.649 642.27 260.359H637.5C637.5 261.649 637.51 262.939 637.51 264.259Z" fill="#F6FFFF"/><path fill-rule="evenodd" clip-rule="evenodd" d="M637.49 257.41H642.26C642.26 256.12 642.26 254.84 642.26 253.55H637.49C637.48 254.84 637.49 256.12 637.49 257.41Z" fill="#F6FFFF"/><path fill-rule="evenodd" clip-rule="evenodd" d="M637.47 250.6H642.25C642.25 249.31 642.25 247.99 642.25 246.7H637.47C637.46 248 637.47 249.31 637.47 250.6Z" fill="#F6FFFF"/><path fill-rule="evenodd" clip-rule="evenodd" d="M637.45 243.749H642.23C642.23 242.429 642.23 241.109 642.23 239.819H637.45C637.45 241.109 637.45 242.429 637.45 243.749Z" fill="#F6FFFF"/><path fill-rule="evenodd" clip-rule="evenodd" d="M637.43 236.869H642.22C642.22 235.549 642.22 234.259 642.22 232.939H637.43C637.43 234.259 637.43 235.549 637.43 236.869Z" fill="#F6FFFF"/><path fill-rule="evenodd" clip-rule="evenodd" d="M647.12 291.42H666.92C666.92 290.13 666.92 288.84 666.92 287.55H647.12V291.42Z" fill="#F6FFFF"/><path fill-rule="evenodd" clip-rule="evenodd" d="M647.11 284.67H666.94V280.77H647.11V284.67Z" fill="#F6FFFF"/><path fill-rule="evenodd" clip-rule="evenodd" d="M655.77 257.41H667V253.55H655.77V257.41Z" fill="#F6FFFF"/><path fill-rule="evenodd" clip-rule="evenodd" d="M635.49 58.9396C643.76 58.9396 651.97 58.9396 660.23 58.9396C660.23 57.7196 660.23 56.4996 660.23 55.3096H635.48C635.48 56.5296 635.48 57.7496 635.49 58.9396Z" fill="#F6FFFF"/><path fill-rule="evenodd" clip-rule="evenodd" d="M668.12 59.0001H675C675 57.7801 675 56.5601 675 55.3701H668.08C668.13 56.5301 668.12 57.7501 668.12 59.0001Z" fill="#F6FFFF"/><path fill-rule="evenodd" clip-rule="evenodd" d="M778.51 59.0001H784.18C784.18 57.7801 784.23 56.5601 784.25 55.3701H778.58C778.56 56.5301 778.53 57.7501 778.51 59.0001Z" fill="#F6FFFF"/><path fill-rule="evenodd" clip-rule="evenodd" d="M811.2 59.0001H796.2C796.2 57.7801 796.25 56.5601 796.28 55.3701H811.28C811.26 56.5301 811.23 57.7501 811.2 59.0001Z" fill="#F6FFFF"/><path fill-rule="evenodd" clip-rule="evenodd" d="M814.49 59.0001H820.17C820.17 57.7801 820.23 56.5601 820.26 55.3701H814.58C814.55 56.5301 814.52 57.7501 814.49 59.0001Z" fill="#F6FFFF"/><path fill-rule="evenodd" clip-rule="evenodd" d="M744.92 325.22H858.28C858.88 306.44 859.49 287.567 860.11 268.6C860.73 249.633 861.36 230.467 862 211.1C862.627 191.667 863.26 172.137 863.9 152.51C864.567 132.75 865.21 112.86 865.83 92.8398H748.3C748.02 112.84 747.737 132.72 747.45 152.48C747.17 172.113 746.89 191.653 746.61 211.1C746.33 230.39 746 249.58 745.73 268.64C745.46 287.7 745.19 306.47 744.92 325.22Z" fill="#2B4D69"/><path fill-rule="evenodd" clip-rule="evenodd" d="M744.92 325.22H858.28C858.28 324.14 858.35 323.09 858.38 322H745C745 323.09 744.93 324.17 744.92 325.22Z" fill="#F6FFFF"/><path fill-rule="evenodd" clip-rule="evenodd" d="M752.76 317.559H772.53C772.53 316.269 772.58 315.019 772.6 313.729H752.82C752.8 314.999 752.78 316.269 752.76 317.559Z" fill="#F6FFFF"/><path fill-rule="evenodd" clip-rule="evenodd" d="M752.86 310.85H772.66C772.66 309.59 772.71 308.3 772.73 307.02H752.92C752.9 308.3 752.88 309.59 752.86 310.85Z" fill="#F6FFFF"/><path fill-rule="evenodd" clip-rule="evenodd" d="M759.06 281.72H846.33C846.33 281.25 846.33 280.72 846.33 280.37H759.08C759.08 280.77 759.07 281.25 759.06 281.72Z" fill="#F6FFFF"/><path fill-rule="evenodd" clip-rule="evenodd" d="M778.76 317.56H798.53L798.62 313.7C792.03 313.7 785.48 313.7 778.84 313.7C778.81 315 778.79 316.27 778.76 317.56Z" fill="#F6FFFF"/><path fill-rule="evenodd" clip-rule="evenodd" d="M778.89 310.85H798.69C798.69 309.59 798.69 308.3 798.77 307.02H779C778.94 308.3 778.92 309.59 778.89 310.85Z" fill="#F6FFFF"/><path fill-rule="evenodd" clip-rule="evenodd" d="M826.32 310.81H831.83C831.83 309.56 831.9 308.27 831.94 307.02H826.43C826.39 308.3 826.36 309.56 826.32 310.81Z" fill="#90FFFF"/><path fill-rule="evenodd" clip-rule="evenodd" d="M834.74 310.81H840.25C840.25 309.53 840.32 308.27 840.36 307.02H834.85C834.81 308.27 834.78 309.56 834.74 310.81Z" fill="#90FFFF"/><path fill-rule="evenodd" clip-rule="evenodd" d="M754.73 268.47H773.29C773.29 267.18 773.34 265.89 773.37 264.6H754.79L754.73 268.47Z" fill="#00C4DB"/><path fill-rule="evenodd" clip-rule="evenodd" d="M754.86 260H773.45C773.45 258.71 773.45 257.39 773.53 256.06C767.29 256.06 761.11 256.06 754.92 256.06C754.9 257.35 754.88 258.67 754.86 260Z" fill="#00C4DB"/><path fill-rule="evenodd" clip-rule="evenodd" d="M755 251.41C761.19 251.41 767.37 251.41 773.61 251.41C773.61 250.09 773.61 248.799 773.69 247.479C767.44 247.479 761.25 247.479 755.06 247.479C755 248.769 755 250.06 755 251.41Z" fill="#00C4DB"/><path fill-rule="evenodd" clip-rule="evenodd" d="M777.74 268.47H785.48C785.48 267.18 785.48 265.89 785.56 264.6H777.82C777.79 265.89 777.76 267.18 777.74 268.47Z" fill="#F6FFFF"/><path fill-rule="evenodd" clip-rule="evenodd" d="M777.9 260H785.66C785.66 258.71 785.71 257.39 785.74 256.06H778C778 257.35 777.93 258.67 777.9 260Z" fill="#F6FFFF"/><path fill-rule="evenodd" clip-rule="evenodd" d="M755.46 221.999H774.22C774.22 220.679 774.22 219.389 774.29 218.069H755.52L755.46 221.999Z" fill="#0D85D6"/><path fill-rule="evenodd" clip-rule="evenodd" d="M755.6 213.3H774.38C774.38 211.98 774.38 210.66 774.45 209.3H755.66L755.6 213.3Z" fill="#00C4DB"/><path fill-rule="evenodd" clip-rule="evenodd" d="M755.73 204.66H774.54C774.54 203.3 774.59 201.98 774.62 200.66H755.8C755.78 202 755.76 203.3 755.73 204.66Z" fill="#12D591"/><path fill-rule="evenodd" clip-rule="evenodd" d="M778.64 221.999H786.44C786.44 220.679 786.44 219.389 786.52 218.069H778.72C778.69 219.339 778.67 220.629 778.64 221.999Z" fill="#F6FFFF"/><path fill-rule="evenodd" clip-rule="evenodd" d="M778.81 213.3H786.62C786.62 211.98 786.62 210.66 786.7 209.3H778.89C778.86 210.66 778.84 212 778.81 213.3Z" fill="#F6FFFF"/><path fill-rule="evenodd" clip-rule="evenodd" d="M756.21 174.75H775.1C775.1 173.4 775.1 172.08 775.18 170.75H756.27C756.25 172.08 756.23 173.4 756.21 174.75Z" fill="#B5E98D"/><path fill-rule="evenodd" clip-rule="evenodd" d="M756.34 166H775.26C775.26 164.65 775.26 163.32 775.34 162H756.41C756.39 163.29 756.36 164.62 756.34 166Z" fill="#F6FFFF"/><path fill-rule="evenodd" clip-rule="evenodd" d="M756.48 157.189H775.43C775.43 155.869 775.48 154.509 775.5 153.189H756.5C756.52 154.509 756.5 155.869 756.48 157.189Z" fill="#F6FFFF"/><path fill-rule="evenodd" clip-rule="evenodd" d="M779.56 174.75H787.41C787.41 173.4 787.47 172.08 787.5 170.75H779.64C779.61 172.08 779.58 173.4 779.56 174.75Z" fill="#F6FFFF"/><path fill-rule="evenodd" clip-rule="evenodd" d="M779.73 166H787.59C787.59 164.65 787.65 163.32 787.68 162H779.81C779.78 163.29 779.75 164.62 779.73 166Z" fill="#F6FFFF"/><path fill-rule="evenodd" clip-rule="evenodd" d="M757 126.849H776C776 125.489 776 124.169 776.07 122.779H757V126.849Z" fill="#F6FFFF"/><path fill-rule="evenodd" clip-rule="evenodd" d="M757.1 117.929H776.16C776.16 116.569 776.21 115.219 776.24 113.859H757.16L757.1 117.929Z" fill="#F6FFFF"/><path fill-rule="evenodd" clip-rule="evenodd" d="M757.24 109H776.33C776.33 107.65 776.33 106.29 776.41 104.93H757.3L757.24 109Z" fill="#F6FFFF"/><path fill-rule="evenodd" clip-rule="evenodd" d="M780.49 126.849H788.4C788.4 125.489 788.46 124.169 788.48 122.779H780.57C780.54 124.169 780.52 125.489 780.49 126.849Z" fill="#F6FFFF"/><path fill-rule="evenodd" clip-rule="evenodd" d="M780.66 117.929H788.59C788.59 116.569 788.59 115.219 788.67 113.859H780.74C780.71 115.219 780.69 116.569 780.66 117.929Z" fill="#F6FFFF"/><path fill-rule="evenodd" clip-rule="evenodd" d="M801.17 268.47H809C809 267.89 809 267.31 809 266.74H801.2C801.2 267.31 801.19 267.89 801.17 268.47Z" fill="#F6FFFF"/><path fill-rule="evenodd" clip-rule="evenodd" d="M816 270.4C814.74 268.26 813.49 266.13 812.29 263.96C811.76 264.23 811.23 264.5 810.7 264.81C811.9 266.94 813.15 269.08 814.4 271.25C814.92 270.94 815.45 270.67 816 270.4Z" fill="#F6FFFF"/><path fill-rule="evenodd" clip-rule="evenodd" d="M816.44 268.469C817.33 268.469 818.28 268.469 819.22 268.469C819.22 267.929 819.22 267.349 819.22 266.779H816.45C816.47 267.309 816.46 267.889 816.44 268.469Z" fill="#F6FFFF"/><path fill-rule="evenodd" clip-rule="evenodd" d="M822.53 269.65C823.084 269.664 823.622 269.464 824.031 269.092C824.441 268.719 824.691 268.203 824.73 267.65C824.74 267.374 824.692 267.099 824.591 266.842C824.489 266.585 824.335 266.352 824.139 266.157C823.942 265.963 823.708 265.811 823.45 265.712C823.192 265.612 822.916 265.568 822.64 265.58C822.077 265.574 821.533 265.787 821.123 266.172C820.713 266.558 820.468 267.088 820.44 267.65C820.44 267.921 820.494 268.188 820.6 268.437C820.706 268.686 820.862 268.91 821.057 269.097C821.253 269.284 821.484 269.43 821.737 269.525C821.99 269.62 822.26 269.662 822.53 269.65Z" fill="#F6FFFF"/><path fill-rule="evenodd" clip-rule="evenodd" d="M830.55 270.94C831.21 269.82 831.92 268.7 832.63 267.59C833.34 266.48 834.05 265.35 834.76 264.26H826.76C827.35 265.35 828 266.5 828.6 267.59L830.55 270.94Z" fill="#F6FFFF"/><path fill-rule="evenodd" clip-rule="evenodd" d="M620.83 169H628.7C628.7 168.39 628.7 167.81 628.7 167.24H620.83C620.83 167.8 620.83 168.38 620.83 169Z" fill="#F6FFFF"/><path fill-rule="evenodd" clip-rule="evenodd" d="M635.87 170.999C634.54 168.769 633.2 166.559 631.87 164.319C631.34 164.599 630.81 164.869 630.33 165.169C631.61 167.409 632.95 169.649 634.28 171.849C634.81 171.569 635.34 171.289 635.87 170.999Z" fill="#F6FFFF"/><path fill-rule="evenodd" clip-rule="evenodd" d="M636.29 169H639.11C639.11 168.39 639.11 167.81 639.11 167.24H636.3L636.29 169Z" fill="#F6FFFF"/><path fill-rule="evenodd" clip-rule="evenodd" d="M642.51 170.24C642.8 170.26 643.091 170.22 643.365 170.123C643.639 170.025 643.89 169.873 644.102 169.675C644.315 169.476 644.484 169.236 644.6 168.97C644.716 168.703 644.776 168.416 644.776 168.125C644.776 167.834 644.716 167.547 644.6 167.28C644.484 167.013 644.315 166.774 644.102 166.575C643.89 166.377 643.639 166.224 643.365 166.127C643.091 166.03 642.8 165.99 642.51 166.01C642.229 166.003 641.95 166.053 641.688 166.155C641.426 166.257 641.188 166.41 640.986 166.606C640.784 166.801 640.623 167.035 640.512 167.293C640.401 167.551 640.343 167.829 640.34 168.11C640.353 168.678 640.587 169.218 640.992 169.616C641.398 170.013 641.942 170.237 642.51 170.24Z" fill="#F6FFFF"/><path fill-rule="evenodd" clip-rule="evenodd" d="M650.69 171.569C651.38 170.409 652.01 169.229 652.69 168.109C653.37 166.989 654.08 165.799 654.82 164.649H646.58L648.66 168.109C649.31 169.229 650 170.409 650.69 171.569Z" fill="#F6FFFF"/><path fill-rule="evenodd" clip-rule="evenodd" d="M465.09 214.08H473C473 213.51 473 212.93 472.95 212.35H465C465.05 212.93 465.07 213.51 465.09 214.08Z" fill="#F6FFFF"/><path fill-rule="evenodd" clip-rule="evenodd" d="M480.07 216.05C478.69 213.88 477.31 211.68 475.98 209.51C475.465 209.777 474.965 210.071 474.48 210.39C475.81 212.56 477.19 214.76 478.57 216.93C479 216.63 479.55 216.32 480.07 216.05Z" fill="#F6FFFF"/><path fill-rule="evenodd" clip-rule="evenodd" d="M480.49 214.08H483.23C483.23 213.51 483.23 212.93 483.23 212.35H480.48C480.46 212.93 480.48 213.51 480.49 214.08Z" fill="#F6FFFF"/><path fill-rule="evenodd" clip-rule="evenodd" d="M486.64 215.339C486.917 215.344 487.193 215.292 487.45 215.188C487.707 215.084 487.941 214.93 488.137 214.734C488.334 214.538 488.49 214.305 488.595 214.049C488.7 213.792 488.753 213.517 488.75 213.24C488.734 212.666 488.492 212.121 488.076 211.726C487.66 211.331 487.104 211.116 486.53 211.13C486.252 211.124 485.976 211.175 485.718 211.279C485.46 211.383 485.226 211.539 485.029 211.736C484.833 211.933 484.679 212.168 484.576 212.426C484.473 212.685 484.423 212.961 484.43 213.24C484.458 213.806 484.704 214.341 485.115 214.732C485.526 215.123 486.073 215.34 486.64 215.339Z" fill="#F6FFFF"/><path fill-rule="evenodd" clip-rule="evenodd" d="M494.85 216.63C495.51 215.51 496.17 214.36 496.85 213.24C497.53 212.12 498.12 210.96 498.77 209.81H490.64C491.31 210.96 492.02 212.08 492.74 213.24L494.85 216.63Z" fill="#00C4DB"/><path fill-rule="evenodd" clip-rule="evenodd" d="M507.55 216.05C506.18 213.88 504.81 211.68 503.43 209.51C502.912 209.777 502.408 210.071 501.92 210.39C503.24 212.56 504.61 214.76 505.98 216.93C506.5 216.63 507 216.32 507.55 216.05Z" fill="#90FFFF"/><path fill-rule="evenodd" clip-rule="evenodd" d="M513.14 216.05C511.77 213.88 510.4 211.68 509.08 209.51C508.56 209.78 508.08 210.08 507.52 210.39C508.84 212.56 510.2 214.76 511.57 216.93C512.09 216.63 512.61 216.32 513.14 216.05Z" fill="#90FFFF"/><path fill-rule="evenodd" clip-rule="evenodd" d="M516.26 214.08H524.12C524.12 213.51 524.12 212.93 524.12 212.35H516.26C516.23 212.93 516.24 213.51 516.26 214.08Z" fill="#F6FFFF"/><path fill-rule="evenodd" clip-rule="evenodd" d="M526.84 215.85H528.64C528.64 215.27 528.64 214.69 528.64 214.12H526.85L526.84 215.85Z" fill="#F6FFFF"/><path fill-rule="evenodd" clip-rule="evenodd" d="M526.77 212.32H528.57C528.57 211.74 528.57 211.17 528.57 210.62H526.78C526.75 211.17 526.76 211.74 526.77 212.32Z" fill="#F6FFFF"/><path fill-rule="evenodd" clip-rule="evenodd" d="M434.49 198.69H442.37L442.31 196.96H434.43L434.49 198.69Z" fill="#F6FFFF"/><path fill-rule="evenodd" clip-rule="evenodd" d="M449.52 200.69C448.13 198.49 446.73 196.28 445.39 194.08C444.87 194.35 444.39 194.66 443.83 194.96C445.23 197.16 446.62 199.44 448.01 201.57C448.48 201.27 449 201 449.52 200.69Z" fill="#F6FFFF"/><path fill-rule="evenodd" clip-rule="evenodd" d="M449.93 198.69H452.68C452.68 198.11 452.68 197.54 452.63 196.96H449.88C449.89 197.54 449.91 198.11 449.93 198.69Z" fill="#F6FFFF"/><path fill-rule="evenodd" clip-rule="evenodd" d="M456.1 200C456.379 200.007 456.656 199.957 456.915 199.854C457.174 199.75 457.41 199.595 457.607 199.397C457.804 199.2 457.96 198.965 458.063 198.706C458.167 198.447 458.217 198.169 458.21 197.89C458.186 197.314 457.94 196.769 457.521 196.371C457.103 195.974 456.547 195.755 455.97 195.76C455.69 195.755 455.412 195.806 455.153 195.912C454.893 196.017 454.658 196.174 454.462 196.374C454.265 196.573 454.111 196.81 454.01 197.071C453.908 197.332 453.86 197.61 453.87 197.89C453.898 198.461 454.146 199 454.561 199.393C454.977 199.786 455.528 200.003 456.1 200Z" fill="#F6FFFF"/><path fill-rule="evenodd" clip-rule="evenodd" d="M464.34 201.27C464.94 200.12 465.59 198.96 466.24 197.84L468.24 194.38H460.09C460.76 195.54 461.48 196.69 462.2 197.84C462.92 198.99 463.62 200.12 464.34 201.27Z" fill="#00C4DB"/><path fill-rule="evenodd" clip-rule="evenodd" d="M477 200.69L472.84 194.08C472.38 194.35 471.84 194.66 471.39 194.96C472.72 197.16 474.11 199.44 475.49 201.57C476 201.27 476.49 201 477 200.69Z" fill="#F6FFFF"/><path fill-rule="evenodd" clip-rule="evenodd" d="M482.66 200.69L478.52 194.08C478 194.35 477.52 194.66 477.01 194.96C478.34 197.16 479.72 199.44 481.1 201.57C481.62 201.27 482.14 201 482.66 200.69Z" fill="#F6FFFF"/><path fill-rule="evenodd" clip-rule="evenodd" d="M485.78 198.69H493.66C493.66 198.11 493.66 197.54 493.66 196.96H485.78C485.75 197.54 485.77 198.11 485.78 198.69Z" fill="#F6FFFF"/><path fill-rule="evenodd" clip-rule="evenodd" d="M496.4 200.49H498.2C498.2 199.88 498.2 199.299 498.2 198.729H496.4C496.37 199.299 496.39 199.88 496.4 200.49Z" fill="#F6FFFF"/><path fill-rule="evenodd" clip-rule="evenodd" d="M496.31 196.93H498.11C498.11 196.35 498.11 195.77 498.11 195.2H496.31C496.29 195.77 496.3 196.35 496.31 196.93Z" fill="#F6FFFF"/><path fill-rule="evenodd" clip-rule="evenodd" d="M506.19 200.69C504.81 198.49 503.44 196.28 502.12 194.08C501.59 194.35 501.07 194.66 500.55 194.96C501.87 197.16 503.25 199.44 504.62 201.57C505.14 201.27 505.66 201 506.19 200.69Z" fill="#F6FFFF"/><path fill-rule="evenodd" clip-rule="evenodd" d="M511.79 200.69C510.42 198.49 509.05 196.28 507.73 194.08C507.2 194.35 506.68 194.66 506.11 194.96C507.53 197.16 508.91 199.44 510.28 201.57C510.75 201.27 511.27 201 511.79 200.69Z" fill="#F6FFFF"/><path fill-rule="evenodd" clip-rule="evenodd" d="M515.66 201.27C516.32 200.12 516.99 198.96 517.66 197.84C518.33 196.72 518.93 195.54 519.6 194.38H511.45C512.16 195.54 512.87 196.69 513.59 197.84C514.31 198.99 515 200.12 515.66 201.27Z" fill="#F6FFFF"/><path fill-rule="evenodd" clip-rule="evenodd" d="M526.13 201.27C526.79 200.12 527.46 198.96 528.13 197.84C528.8 196.72 529.41 195.54 530.07 194.38H521.92L524.06 197.84C524.71 199 525.42 200.12 526.13 201.27Z" fill="#F6FFFF"/><path fill-rule="evenodd" clip-rule="evenodd" d="M534.93 200C535.209 200.004 535.486 199.952 535.745 199.848C536.004 199.744 536.24 199.589 536.438 199.392C536.636 199.196 536.794 198.962 536.9 198.704C537.007 198.446 537.062 198.169 537.06 197.89C537.037 197.319 536.794 196.779 536.383 196.382C535.971 195.985 535.422 195.762 534.85 195.76C534.569 195.755 534.29 195.806 534.029 195.911C533.768 196.016 533.531 196.173 533.332 196.372C533.133 196.571 532.976 196.808 532.871 197.069C532.766 197.33 532.715 197.609 532.72 197.89C532.743 198.46 532.987 198.998 533.399 199.391C533.811 199.785 534.36 200.003 534.93 200Z" fill="#F6FFFF"/><path fill-rule="evenodd" clip-rule="evenodd" d="M493.77 177.87H505.13C505.13 176.52 505.06 175.2 505.03 173.87H493.67C493.71 175.2 493.74 176.52 493.77 177.87Z" fill="#F6FFFF"/><path fill-rule="evenodd" clip-rule="evenodd" d="M493.47 165.84C496.08 165.84 498.68 165.84 501.34 165.84C501.34 164.45 501.27 163.13 501.24 161.77H493.37C493.4 163.16 493.44 164.48 493.47 165.84Z" fill="#F6FFFF"/><path fill-rule="evenodd" clip-rule="evenodd" d="M493.17 153.77H501C501 152.44 500.93 151.05 500.9 149.77H493.07C493.1 151.05 493.13 152.41 493.17 153.77Z" fill="#F6FFFF"/><path fill-rule="evenodd" clip-rule="evenodd" d="M492.86 141.63H534C534 140.31 534 138.98 533.92 137.63H492.76C492.8 139 492.83 140.27 492.86 141.63Z" fill="#F6FFFF"/><path fill-rule="evenodd" clip-rule="evenodd" d="M485.07 177.87H483C482.413 155.63 481.817 133.254 481.21 110.74H483.3C483.887 133.26 484.477 155.637 485.07 177.87Z" fill="#F6FFFF"/><path fill-rule="evenodd" clip-rule="evenodd" d="M796.53 215.85H804.28C804.28 215.24 804.28 214.66 804.33 214.12H796.57C796.56 214.66 796.55 215.24 796.53 215.85Z" fill="#F6FFFF"/><path fill-rule="evenodd" clip-rule="evenodd" d="M811.41 217.85C810.14 215.61 808.88 213.44 807.61 211.24C807.079 211.508 806.562 211.801 806.06 212.12C807.28 214.32 808.54 216.49 809.81 218.69C810.34 218.39 810.87 218.12 811.41 217.85Z" fill="#F6FFFF"/><path fill-rule="evenodd" clip-rule="evenodd" d="M811.88 215.85H814.67C814.67 215.24 814.67 214.66 814.72 214.12H811.92C811.91 214.66 811.89 215.24 811.88 215.85Z" fill="#F6FFFF"/><path fill-rule="evenodd" clip-rule="evenodd" d="M818 217.07C818.568 217.07 819.114 216.853 819.525 216.462C819.936 216.071 820.182 215.536 820.21 214.97C820.213 214.693 820.16 214.418 820.056 214.161C819.951 213.905 819.797 213.672 819.601 213.475C819.406 213.279 819.174 213.123 818.918 213.018C818.661 212.912 818.387 212.858 818.11 212.86C817.538 212.851 816.985 213.068 816.57 213.462C816.155 213.856 815.911 214.398 815.89 214.97C815.887 215.247 815.94 215.522 816.045 215.779C816.151 216.035 816.306 216.268 816.503 216.464C816.699 216.66 816.933 216.814 817.19 216.918C817.447 217.022 817.723 217.074 818 217.07Z" fill="#F6FFFF"/><path fill-rule="evenodd" clip-rule="evenodd" d="M826.1 218.39C826.82 217.24 827.53 216.08 828.25 214.97C828.97 213.86 829.69 212.69 830.4 211.54H822.22C822.88 212.69 823.53 213.85 824.22 214.97C824.91 216.09 825.45 217.24 826.1 218.39Z" fill="#90FFFF"/><path fill-rule="evenodd" clip-rule="evenodd" d="M838.82 217.85C837.52 215.61 836.26 213.44 835.05 211.24C834.57 211.51 834.05 211.81 833.55 212.12C834.71 214.29 835.96 216.49 837.22 218.69C837.7 218.39 838.29 218.12 838.82 217.85Z" fill="#F6FFFF"/><path fill-rule="evenodd" clip-rule="evenodd" d="M844.41 217.85C843.16 215.61 841.9 213.44 840.7 211.24C840.169 211.508 839.652 211.801 839.15 212.12C840.35 214.29 841.6 216.49 842.86 218.69C843.34 218.39 843.88 218.12 844.41 217.85Z" fill="#F6FFFF"/><path fill-rule="evenodd" clip-rule="evenodd" d="M846.89 217.61H848.69C848.69 217 848.69 216.42 848.69 215.85H847C846.93 216.42 846.91 217 846.89 217.61Z" fill="#F6FFFF"/><path fill-rule="evenodd" clip-rule="evenodd" d="M847 214.05H848.8C848.8 213.51 848.8 212.93 848.85 212.35H847.05C847 212.93 847 213.51 847 214.05Z" fill="#F6FFFF"/><path fill-rule="evenodd" clip-rule="evenodd" d="M851.48 217.61H853.22C853.22 217 853.22 216.42 853.28 215.85H851.54C851.52 216.42 851.5 217 851.48 217.61Z" fill="#F6FFFF"/><path fill-rule="evenodd" clip-rule="evenodd" d="M851.59 214.05H853.33C853.33 213.51 853.33 212.93 853.39 212.35H851.64C851.63 212.93 851.61 213.51 851.59 214.05Z" fill="#F6FFFF"/><path fill-rule="evenodd" clip-rule="evenodd" d="M813.06 167.839H815.87C815.87 167.229 815.87 166.649 815.87 166.069H813.1C813.09 166.649 813.07 167.229 813.06 167.839Z" fill="#F6FFFF"/><path fill-rule="evenodd" clip-rule="evenodd" d="M819.25 169.059C819.822 169.068 820.374 168.853 820.79 168.461C821.207 168.069 821.454 167.531 821.48 166.959C821.481 166.679 821.427 166.401 821.321 166.141C821.214 165.882 821.057 165.646 820.86 165.447C820.662 165.248 820.426 165.09 820.167 164.982C819.908 164.875 819.63 164.819 819.35 164.819C818.774 164.819 818.22 165.041 817.804 165.44C817.388 165.839 817.143 166.384 817.12 166.959C817.116 167.239 817.168 167.516 817.274 167.775C817.38 168.034 817.537 168.268 817.736 168.464C817.935 168.66 818.172 168.814 818.432 168.917C818.692 169.019 818.97 169.067 819.25 169.059Z" fill="#F6FFFF"/><path fill-rule="evenodd" clip-rule="evenodd" d="M827.39 170.45C828.11 169.26 828.83 168.11 829.55 166.96C830.27 165.81 831 164.62 831.72 163.5H823.48C824.14 164.62 824.8 165.8 825.48 166.96C826.16 168.12 826.73 169.26 827.39 170.45Z" fill="#90FFFF"/><path fill-rule="evenodd" clip-rule="evenodd" d="M840.21 169.869C838.94 167.629 837.68 165.399 836.46 163.189C835.92 163.459 835.38 163.739 834.9 164.039C836.11 166.279 837.38 168.479 838.64 170.749C839.13 170.449 839.67 170.139 840.21 169.869Z" fill="#F6FFFF"/><path fill-rule="evenodd" clip-rule="evenodd" d="M845.84 169.869C844.57 167.629 843.31 165.399 842.1 163.189C841.56 163.459 841.02 163.739 840.53 164.039C841.74 166.279 843.01 168.479 844.27 170.749C844.76 170.449 845.3 170.139 845.84 169.869Z" fill="#F6FFFF"/><path fill-rule="evenodd" clip-rule="evenodd" d="M853 169.63H854.75C854.75 169.02 854.75 168.45 854.81 167.87H853C853 168.45 853 169 853 169.63Z" fill="#F6FFFF"/><path fill-rule="evenodd" clip-rule="evenodd" d="M853.07 166.069H854.82C854.82 165.459 854.82 164.849 854.88 164.279H853.12C853.11 164.849 853.09 165.429 853.07 166.069Z" fill="#F6FFFF"/><path fill-rule="evenodd" clip-rule="evenodd" d="M798.07 170.45C798.73 169.26 799.45 168.11 800.17 166.96C800.89 165.81 801.6 164.62 802.32 163.5H794.13C794.75 164.62 795.41 165.8 796.13 166.96C796.85 168.12 797.41 169.26 798.07 170.45Z" fill="#90FFFF"/><path fill-rule="evenodd" clip-rule="evenodd" d="M807.68 170.45C808.35 169.26 809.07 168.11 809.79 166.96C810.51 165.81 811.22 164.62 811.94 163.5H803.76C804.37 164.62 805.03 165.8 805.69 166.96C806.35 168.12 807 169.26 807.68 170.45Z" fill="#90FFFF"/><path fill-rule="evenodd" clip-rule="evenodd" d="M848.73 169.059C849.301 169.074 849.855 168.868 850.278 168.484C850.7 168.1 850.959 167.569 851 166.999C851.003 166.72 850.95 166.443 850.845 166.184C850.741 165.925 850.586 165.69 850.39 165.491C850.194 165.292 849.96 165.134 849.703 165.026C849.446 164.917 849.169 164.861 848.89 164.859C848.312 164.859 847.756 165.081 847.337 165.479C846.918 165.877 846.668 166.422 846.64 166.999C846.64 167.272 846.694 167.543 846.8 167.795C846.905 168.047 847.06 168.275 847.254 168.467C847.449 168.658 847.679 168.81 847.933 168.911C848.186 169.013 848.457 169.063 848.73 169.059Z" fill="#F6FFFF"/><path fill-rule="evenodd" clip-rule="evenodd" d="M443 312.54H487.31C487.18 308.03 487.06 303.54 486.95 299.08C472.11 299.12 457.31 299.12 442.55 299.08C442.73 303.52 442.88 308.07 443 312.54Z" fill="#19364E"/><path fill-rule="evenodd" clip-rule="evenodd" d="M491.07 312.539C505.817 312.539 520.587 312.539 535.38 312.539C535.29 308.059 535.21 303.539 535.12 299.109H490.72C490.84 303.519 491 307.999 491.07 312.539Z" fill="#19364E"/><path fill-rule="evenodd" clip-rule="evenodd" d="M448 308.24H466.09C466.09 306.91 466.01 305.63 465.97 304.37H447.9C448 305.63 448 307 448 308.24Z" fill="#F6FFFF"/><path fill-rule="evenodd" clip-rule="evenodd" d="M496.21 308.2H514.21C514.21 306.91 514.21 305.63 514.13 304.34H496.13C496.15 305.63 496.18 306.91 496.21 308.2Z" fill="#F6FFFF"/><path fill-rule="evenodd" clip-rule="evenodd" d="M477.69 309.59C478.29 308.47 478.93 307.32 479.58 306.24C480.23 305.16 480.87 304 481.51 302.91H473.51C474.17 304 474.88 305.12 475.58 306.24C476.28 307.36 477 308.47 477.69 309.59Z" fill="#90FFFF"/><path fill-rule="evenodd" clip-rule="evenodd" d="M524.45 309H526.21V307.31H524.44C524.43 307.86 524.44 308.41 524.45 309Z" fill="#F6FFFF"/><path fill-rule="evenodd" clip-rule="evenodd" d="M524.38 305.559H526.15C526.15 304.979 526.15 304.409 526.15 303.859H524.38C524.35 304.409 524.37 304.999 524.38 305.559Z" fill="#F6FFFF"/><path fill-rule="evenodd" clip-rule="evenodd" d="M410.91 349.259H414.84C414.423 349.261 414.02 349.105 413.713 348.824C413.405 348.542 413.215 348.155 413.18 347.739C412.24 323.499 411.29 299.009 410.34 274.399C409.387 249.579 408.42 224.546 407.44 199.299C406.46 173.839 405.46 148.219 404.44 122.439C403.427 96.3993 402.427 70.156 401.44 43.7093C401.428 43.4941 401.459 43.2786 401.531 43.0755C401.603 42.8724 401.715 42.6857 401.86 42.5265C402.006 42.3672 402.181 42.2386 402.377 42.148C402.573 42.0575 402.784 42.007 403 41.9993H398.88C398.658 41.9951 398.438 42.0361 398.233 42.12C398.027 42.2038 397.841 42.3286 397.686 42.4868C397.531 42.645 397.409 42.8332 397.329 43.04C397.249 43.2468 397.212 43.4677 397.22 43.6893C398.26 70.136 399.29 96.3793 400.31 122.419C401.317 148.219 402.317 173.839 403.31 199.279C404.303 224.499 405.287 249.533 406.26 274.379C407.26 298.989 408.19 323.479 409.14 347.719C409.173 348.157 409.378 348.564 409.709 348.853C410.04 349.141 410.472 349.287 410.91 349.259Z" fill="#2B4D69"/><path fill-rule="evenodd" clip-rule="evenodd" d="M898.55 349.23H894.62C895.044 349.231 895.451 349.07 895.76 348.78C896.069 348.49 896.255 348.093 896.28 347.67C897.22 323.39 898.167 298.933 899.12 274.3C900.073 249.48 901.037 224.48 902.01 199.3C902.99 173.907 903.99 148.297 905.01 122.47C906.01 96.4701 907.01 70.2401 908.01 43.7801C908.02 43.5624 907.985 43.345 907.908 43.141C907.832 42.937 907.715 42.7505 907.565 42.5927C907.414 42.4349 907.234 42.3091 907.034 42.2227C906.833 42.1364 906.618 42.0913 906.4 42.0901H910.52C910.742 42.086 910.963 42.127 911.169 42.2107C911.375 42.2944 911.561 42.4191 911.717 42.5771C911.874 42.7352 911.996 42.9233 912.077 43.1301C912.159 43.3369 912.197 43.558 912.19 43.7801C911.15 70.2335 910.12 96.4635 909.1 122.47C908.093 148.27 907.093 173.88 906.1 199.3C905.107 224.487 904.127 249.487 903.16 274.3C902.187 298.913 901.227 323.37 900.28 347.67C900.249 348.103 900.052 348.508 899.729 348.799C899.407 349.089 898.984 349.244 898.55 349.23Z" fill="#2B4D69"/><path fill-rule="evenodd" clip-rule="evenodd" d="M868.57 360.34H874.92C875.817 360.333 876.677 359.984 877.325 359.362C877.972 358.741 878.357 357.896 878.4 357C878.411 356.57 878.335 356.142 878.176 355.741C878.018 355.341 877.78 354.977 877.478 354.671C877.175 354.365 876.814 354.123 876.416 353.959C876.018 353.796 875.59 353.714 875.16 353.72H868.8C867.912 353.719 867.057 354.058 866.411 354.668C865.766 355.278 865.379 356.113 865.33 357C865.33 357 865.33 357 865.33 357.05C865.325 357.479 865.405 357.905 865.565 358.304C865.725 358.702 865.963 359.065 866.264 359.37C866.565 359.676 866.924 359.92 867.32 360.086C867.716 360.252 868.141 360.339 868.57 360.34Z" fill="#152F46"/><path fill-rule="evenodd" clip-rule="evenodd" d="M492.55 114.17H503.55C503.55 113.01 503.49 111.86 503.47 110.74H492.46C492.49 111.86 492.52 113 492.55 114.17Z" fill="#12D591"/><path fill-rule="evenodd" clip-rule="evenodd" d="M492.72 121.05C496.42 121.05 500.06 121.05 503.72 121.05C503.72 119.9 503.66 118.75 503.64 117.63H492.64C492.67 118.78 492.69 119.93 492.72 121.05Z" fill="#12D591"/><path fill-rule="evenodd" clip-rule="evenodd" d="M492.9 127.93C496.59 127.93 500.22 127.93 503.9 127.93C503.9 126.81 503.85 125.62 503.82 124.5H492.82L492.9 127.93Z" fill="#B5E98D"/><path fill-rule="evenodd" clip-rule="evenodd" d="M507.82 114.17H519C519 113.01 518.95 111.86 518.93 110.74H507.74C507.77 111.86 507.79 113 507.82 114.17Z" fill="#12D591"/><path fill-rule="evenodd" clip-rule="evenodd" d="M508 121.08H519.13C519.13 119.93 519.08 118.78 519.06 117.66H507.9C507.92 118.78 508 119.93 508 121.08Z" fill="#12D591"/><path fill-rule="evenodd" clip-rule="evenodd" d="M508.13 127.999H519.25C519.25 126.879 519.25 125.719 519.18 124.569H508.05C508.08 125.659 508.11 126.849 508.13 127.999Z" fill="#B5E98D"/><path d="M338.824 108.986L330.255 113.903L335.177 122.481L343.746 117.564L338.824 108.986Z" fill="#F6FEFF"/><path d="M348.824 126.421L340.254 131.337L345.175 139.916L353.745 135L348.824 126.421Z" fill="#F6FEFF"/><path fill-rule="evenodd" clip-rule="evenodd" d="M1000.35 140.47C1001.33 141.079 1002.05 142.032 1002.36 143.143C1002.67 144.254 1002.55 145.441 1002.03 146.47L998.43 153.78L1005.17 157.68C1006.15 158.289 1006.87 159.242 1007.18 160.353C1007.49 161.464 1007.37 162.651 1006.85 163.68C1006.62 164.172 1006.29 164.612 1005.88 164.973C1005.48 165.334 1005 165.608 1004.48 165.778C1003.97 165.949 1003.42 166.012 1002.88 165.964C1002.34 165.916 1001.81 165.758 1001.33 165.5L994.59 161.59L990.99 168.9C990.765 169.398 990.438 169.843 990.032 170.208C989.625 170.573 989.147 170.849 988.628 171.019C988.109 171.189 987.56 171.25 987.017 171.197C986.473 171.143 985.946 170.978 985.47 170.71C984.492 170.1 983.777 169.146 983.466 168.036C983.156 166.926 983.271 165.739 983.79 164.71L987.39 157.41L980.65 153.51C979.674 152.898 978.96 151.944 978.65 150.835C978.339 149.725 978.453 148.54 978.97 147.51C979.201 147.017 979.531 146.577 979.938 146.217C980.345 145.856 980.821 145.582 981.338 145.411C981.855 145.241 982.401 145.178 982.943 145.226C983.485 145.274 984.011 145.432 984.49 145.69L991.24 149.6L994.84 142.29C995.062 141.791 995.386 141.343 995.791 140.977C996.196 140.61 996.673 140.332 997.192 140.161C997.711 139.989 998.26 139.928 998.804 139.982C999.348 140.035 999.874 140.201 1000.35 140.47Z" fill="#20AFA4"/><path fill-rule="evenodd" clip-rule="evenodd" d="M970.78 64.86L986.58 58.27C987.461 57.908 988.449 57.9087 989.329 58.2721C990.21 58.6355 990.911 59.332 991.28 60.21C991.643 61.0896 991.643 62.0768 991.282 62.957C990.92 63.8371 990.226 64.539 989.35 64.91L973.54 71.49C972.66 71.8525 971.673 71.8532 970.793 71.4918C969.913 71.1304 969.211 70.4361 968.84 69.56C968.478 68.6791 968.479 67.6908 968.842 66.8105C969.206 65.9301 969.902 65.2291 970.78 64.86ZM975.35 75.86C974.471 76.2249 973.773 76.9239 973.409 77.8034C973.045 78.6828 973.046 79.6707 973.41 80.55C973.592 80.9855 973.857 81.381 974.192 81.7138C974.526 82.0466 974.923 82.3101 975.36 82.4894C975.796 82.6686 976.264 82.7601 976.736 82.7585C977.208 82.7568 977.675 82.6622 978.11 82.48L993.92 75.9C994.796 75.529 995.49 74.8271 995.852 73.947C996.213 73.0668 996.213 72.0796 995.85 71.2C995.481 70.3221 994.779 69.6261 993.899 69.2643C993.018 68.9026 992.029 68.9046 991.15 69.27L975.35 75.86Z" fill="#0D85D6"/><path d="M969.094 229.491L964.338 237.761L972.6 242.511L977.355 234.241L969.094 229.491Z" fill="#F6FEFF"/><path d="M959.358 246.228L954.604 254.499L962.866 259.248L967.62 250.977L959.358 246.228Z" fill="#F6FEFF"/><path fill-rule="evenodd" clip-rule="evenodd" d="M603.21 489.589C603.4 491.699 602.29 493.589 600.72 493.899C599.15 494.209 597.72 492.669 597.51 490.559C593.32 446.449 614.23 431.119 643.89 426.049C659.66 423.369 677.89 423.659 696.02 423.949C718.02 424.309 739.9 424.659 756.57 419.619C776.81 413.499 789.31 398.969 784.38 365.229H790.24C795.47 403.539 781.04 420.119 757.83 427.139C740.52 432.369 718.3 432.019 695.95 431.649C678.01 431.369 659.95 431.079 644.61 433.699C618.22 438.199 599.6 451.529 603.21 489.589Z" fill="#152F46"/><path d="M954.96 399.078L950.204 407.349L958.466 412.099L963.221 403.829L954.96 399.078Z" fill="#00C4DB"/><path d="M945.249 415.826L940.495 424.097L948.757 428.846L953.512 420.575L945.249 415.826Z" fill="#00C4DB"/><path fill-rule="evenodd" clip-rule="evenodd" d="M978.94 329.1L967.21 355.56C967.087 355.84 966.891 356.083 966.644 356.263C966.397 356.444 966.107 356.556 965.803 356.588C965.498 356.621 965.191 356.572 964.911 356.448C964.632 356.324 964.39 356.128 964.21 355.88L947.16 332.51C946.979 332.263 946.866 331.973 946.833 331.669C946.8 331.365 946.848 331.057 946.971 330.777C947.095 330.497 947.29 330.255 947.538 330.075C947.785 329.894 948.076 329.782 948.38 329.75L977.16 326.66C977.464 326.63 977.77 326.679 978.049 326.803C978.328 326.928 978.57 327.123 978.749 327.37C978.929 327.617 979.042 327.906 979.075 328.21C979.109 328.513 979.062 328.82 978.94 329.1Z" fill="#0D85D6"/><path fill-rule="evenodd" clip-rule="evenodd" d="M239.77 11.9998L283.93 0.169787C285.237 -0.17306 286.627 0.0137885 287.797 0.689736C288.968 1.36568 289.824 2.47612 290.18 3.77979L302 47.9398C302.346 49.2471 302.16 50.6381 301.484 51.8091C300.807 52.98 299.695 53.8359 298.39 54.1898L254.24 65.9998C252.934 66.3485 251.543 66.1654 250.372 65.4907C249.2 64.8159 248.344 63.7045 247.99 62.3998L236.16 18.2498C235.986 17.6024 235.942 16.927 236.029 16.2624C236.116 15.5977 236.334 14.9569 236.669 14.3764C237.005 13.7959 237.451 13.2872 237.983 12.8794C238.515 12.4716 239.122 12.1727 239.77 11.9998Z" fill="#0D85D6"/><path fill-rule="evenodd" clip-rule="evenodd" d="M247.82 2.50001L293.47 4.93001C295.207 5.02564 296.835 5.80523 297.999 7.09827C299.163 8.39132 299.767 10.0926 299.68 11.83L297.26 57.49C297.162 59.2252 296.381 60.8511 295.088 62.0127C293.796 63.1743 292.096 63.7773 290.36 63.69L244.7 61.27C242.963 61.1744 241.335 60.3948 240.171 59.1017C239.007 57.8087 238.403 56.1074 238.49 54.37L240.91 8.71001C241.011 6.9731 241.793 5.34623 243.087 4.18328C244.381 3.02032 246.082 2.41537 247.82 2.50001ZM293.32 7.85001L247.67 5.43001C246.708 5.37817 245.764 5.71017 245.046 6.35317C244.328 6.99618 243.894 7.8977 243.84 8.86001L241.41 54.52C241.364 55.4827 241.699 56.4249 242.343 57.142C242.987 57.8591 243.888 58.2932 244.85 58.35L290.5 60.77C291.465 60.8172 292.409 60.4831 293.13 59.84C293.484 59.5226 293.773 59.1384 293.979 58.7095C294.185 58.2805 294.304 57.8151 294.33 57.34L296.76 11.68C296.809 10.718 296.474 9.77589 295.83 9.06001C295.513 8.70122 295.128 8.40935 294.697 8.20156C294.266 7.99376 293.798 7.87424 293.32 7.85001Z" fill="#F6FFFF"/><path fill-rule="evenodd" clip-rule="evenodd" d="M246.21 37L276.33 49.52L274.84 53.11L244.72 40.63L246.21 37ZM266.61 13.73L273.42 16.56L271.93 20.15L265.12 17.31L266.61 13.73ZM257.46 10L264.28 12.83L262.78 16.41L256 13.55L257.46 10ZM253.89 18.6L252.39 22.19L277.68 32.7L279.17 29.11L253.89 18.57V18.6ZM249.12 30.08L247.63 33.66L262.69 39.92L264.18 36.34L249.12 30.08Z" fill="#F6FFFF"/><path fill-rule="evenodd" clip-rule="evenodd" d="M1007.6 340.94L992.11 375.94C991.864 376.495 991.478 376.978 990.99 377.34C990.496 377.697 989.916 377.917 989.31 377.98C988.707 378.049 988.095 377.956 987.54 377.71C986.987 377.459 986.508 377.07 986.15 376.58L963.62 345.69C963.26 345.195 963.045 344.61 963 344C962.938 343.394 963.038 342.783 963.29 342.23C963.53 341.67 963.912 341.184 964.4 340.82C964.896 340.466 965.475 340.246 966.08 340.18L1004.08 336.1C1004.68 336.036 1005.29 336.129 1005.85 336.37C1006.41 336.615 1006.89 337.01 1007.24 337.51C1007.6 337.996 1007.83 338.568 1007.9 339.17C1007.96 339.778 1007.86 340.391 1007.61 340.95L1007.6 340.94ZM990 375L1005.5 340C1005.58 339.817 1005.61 339.618 1005.59 339.42C1005.57 339.218 1005.5 339.025 1005.38 338.86C1005.26 338.697 1005.1 338.567 1004.92 338.48C1004.73 338.398 1004.52 338.366 1004.32 338.39L966.32 342.47C966.119 342.487 965.927 342.559 965.763 342.677C965.599 342.795 965.47 342.955 965.39 343.14C965.307 343.325 965.276 343.529 965.3 343.73C965.314 343.935 965.391 344.13 965.52 344.29L988 375.17C988.118 375.337 988.276 375.471 988.46 375.56C988.644 375.633 988.843 375.661 989.04 375.64C989.242 375.622 989.436 375.55 989.6 375.43C989.773 375.33 989.913 375.18 990 375Z" fill="#00C4DB"/><path fill-rule="evenodd" clip-rule="evenodd" d="M869.71 359.19H873.87C874.454 359.183 875.015 358.954 875.436 358.549C875.858 358.144 876.109 357.593 876.14 357.01C876.148 356.728 876.099 356.447 875.996 356.184C875.892 355.922 875.737 355.683 875.539 355.482C875.341 355.281 875.104 355.122 874.843 355.015C874.582 354.908 874.302 354.855 874.02 354.86H869.86C869.276 354.856 868.714 355.078 868.289 355.478C867.865 355.878 867.611 356.427 867.58 357.01C867.572 357.294 867.621 357.577 867.725 357.842C867.828 358.107 867.984 358.348 868.183 358.551C868.381 358.755 868.619 358.916 868.881 359.026C869.144 359.135 869.426 359.191 869.71 359.19Z" fill="#B5E98D"/><path d="M651.86 575.2C867.726 575.2 1042.72 533.978 1042.72 483.13C1042.72 432.281 867.726 391.06 651.86 391.06C435.994 391.06 261 432.281 261 483.13C261 533.978 435.994 575.2 651.86 575.2Z" fill="#152F46"/><path fill-rule="evenodd" clip-rule="evenodd" d="M434.79 423H870.51C874.89 423 879.42 424.63 880.51 426.63C887.73 439.463 895.453 453.173 903.68 467.76L932.17 518.37C933.89 521.37 930.77 523.94 925.27 523.94H378.2C372.7 523.94 369.79 521.42 371.57 518.37L401 467.75C409.493 453.137 417.457 439.427 424.89 426.62C426 424.62 430.41 423 434.79 423Z" fill="#152F46"/><path fill-rule="evenodd" clip-rule="evenodd" d="M458.72 444.05H846.41C850.31 444.05 854.33 445.49 855.33 447.28L876 483.93L894.83 517.43H901.75V530.21C901.99 532.36 899.36 533.98 895.21 533.98H408.37C404.37 533.98 401.96 532.52 402 530.52V517.43H409.18L428.61 483.93L449.87 447.28C450.9 445.49 454.82 444.05 458.72 444.05Z" fill="#76A2C3"/><path fill-rule="evenodd" clip-rule="evenodd" d="M458.72 430.7H846.41C850.31 430.7 854.33 432.15 855.33 433.93L876 470.59L901.35 515.67C902.88 518.4 900.1 520.67 895.21 520.67H408.37C403.47 520.67 400.89 518.43 402.47 515.67C411.803 499.55 420.517 484.524 428.61 470.59C436.163 457.564 443.25 445.344 449.87 433.93C450.9 432.15 454.82 430.7 458.72 430.7Z" fill="#F6FEFF"/><path fill-rule="evenodd" clip-rule="evenodd" d="M481.85 442.939H507.34C509.83 442.939 511.41 443.869 510.91 445.009C509.15 449.009 507.35 453.109 505.51 457.269C504.98 458.479 502.51 459.479 499.87 459.479H473.34C470.75 459.479 469.21 458.479 469.85 457.269L476.29 444.999C476.89 443.869 479.36 442.939 481.85 442.939Z" fill="#E0E5FF"/><path fill-rule="evenodd" clip-rule="evenodd" d="M484.51 443.529H504.11C506.01 443.529 507.26 444.259 506.86 445.139C505.48 448.189 504.07 451.319 502.65 454.479C502.24 455.399 500.28 456.159 498.32 456.159H478.11C476.11 456.159 474.92 455.399 475.4 454.479C477.02 451.319 478.64 448.189 480.22 445.139C480.67 444.259 482.61 443.529 484.51 443.529Z" fill="#F6FEFF"/><path fill-rule="evenodd" clip-rule="evenodd" d="M522.34 442.939H547.87C550.32 442.939 552.03 443.869 551.65 445.009C550.29 449.009 548.89 453.109 547.48 457.269C547.07 458.489 544.61 459.479 542.07 459.479H515.49C512.94 459.479 511.26 458.479 511.77 457.269C513.54 453.109 515.29 449.009 516.98 445.009C517.47 443.869 519.9 442.939 522.34 442.939Z" fill="#E0E5FF"/><path fill-rule="evenodd" clip-rule="evenodd" d="M525.06 443.529H544.71C546.6 443.529 547.87 444.259 547.57 445.139C546.5 448.209 545.4 451.319 544.3 454.489C543.98 455.399 542.14 456.159 540.19 456.159H519.92C517.97 456.159 516.71 455.399 517.09 454.479L520.97 445.139C521.34 444.259 523.16 443.529 525.06 443.529Z" fill="#F6FEFF"/><path fill-rule="evenodd" clip-rule="evenodd" d="M562.88 442.939H588.36C590.86 442.939 592.62 443.869 592.36 445.009C591.36 449.009 590.36 453.109 589.42 457.269C589.12 458.489 586.82 459.499 584.23 459.499H557.7C555.1 459.499 553.36 458.499 553.7 457.289C555.06 453.129 556.39 449.029 557.7 445.029C558.1 443.869 560.38 442.939 562.88 442.939Z" fill="#E0E5FF"/><path fill-rule="evenodd" clip-rule="evenodd" d="M565.65 443.529H585.26C587.15 443.529 588.5 444.259 588.26 445.139C587.49 448.209 586.71 451.319 585.92 454.489C585.7 455.399 583.92 456.159 581.98 456.159H561.78C559.83 456.159 558.45 455.399 558.78 454.489C559.78 451.323 560.763 448.206 561.73 445.139C562 444.259 563.76 443.529 565.65 443.529Z" fill="#F6FEFF"/><path fill-rule="evenodd" clip-rule="evenodd" d="M603.37 442.939H628.9C631.34 442.939 633.2 443.869 633.04 445.009C632.48 449.009 631.91 453.109 631.33 457.269C631.16 458.489 628.96 459.499 626.41 459.499H599.83C597.29 459.499 595.4 458.499 595.67 457.269C596.61 453.109 597.53 449.009 598.42 445.009C598.68 443.869 600.92 442.939 603.37 442.939Z" fill="#76A2C3"/><path fill-rule="evenodd" clip-rule="evenodd" d="M606.2 443.529H625.85C627.75 443.529 629.16 444.259 629.03 445.139C628.57 448.199 628.107 451.316 627.64 454.489C627.5 455.399 625.81 456.169 623.86 456.169H603.6C601.6 456.169 600.24 455.409 600.43 454.499L602.43 445.149C602.62 444.259 604.31 443.529 606.2 443.529Z" fill="#F6FEFF"/><path fill-rule="evenodd" clip-rule="evenodd" d="M643.86 442.939H669.39C671.88 442.939 673.83 443.869 673.79 445.009C673.63 449.009 673.47 453.109 673.31 457.269C673.31 458.489 671.15 459.499 668.56 459.499H642C639.45 459.499 637.51 458.499 637.66 457.269C638.18 453.109 638.66 449.009 639.18 445.009C639.3 443.869 641.41 442.939 643.86 442.939Z" fill="#76A2C3"/><path fill-rule="evenodd" clip-rule="evenodd" d="M646.8 443.529H666.4C668.3 443.529 669.78 444.259 669.74 445.139C669.59 448.209 669.44 451.319 669.28 454.489C669.28 455.399 667.63 456.169 665.67 456.169H645.46C643.46 456.169 641.97 455.399 642.07 454.489C642.44 451.319 642.79 448.209 643.14 445.139C643.24 444.259 644.9 443.529 646.8 443.529Z" fill="#F6FEFF"/><path fill-rule="evenodd" clip-rule="evenodd" d="M684.39 442.939H709.92C712.37 442.939 714.41 443.869 714.48 445.009C714.72 449.009 714.97 453.109 715.23 457.269C715.3 458.489 713.3 459.499 710.75 459.499H684.18C681.63 459.499 679.54 458.499 679.57 457.269C679.67 453.109 679.77 449.009 679.86 445.009C679.89 443.869 682 442.939 684.39 442.939Z" fill="#E0E5FF"/><path fill-rule="evenodd" clip-rule="evenodd" d="M687.34 443.529H707C708.9 443.529 710.46 444.259 710.5 445.139C710.66 448.199 710.82 451.316 710.98 454.489C710.98 455.399 709.49 456.169 707.54 456.169H687.27C685.27 456.169 683.75 455.399 683.77 454.489C683.77 451.319 683.86 448.209 683.9 445.139C683.91 444.259 685.45 443.529 687.34 443.529Z" fill="#F6FEFF"/><path fill-rule="evenodd" clip-rule="evenodd" d="M724.88 443H750.41C752.85 443 755.04 443.92 755.22 445.06C755.86 449.06 756.53 453.16 757.22 457.32C757.41 458.54 755.46 459.55 752.91 459.55H726.32C723.77 459.55 721.63 458.55 721.54 457.32C721.22 453.16 720.91 449.06 720.6 445.06C720.52 443.87 722.43 443 724.88 443Z" fill="#E0E5FF"/><path fill-rule="evenodd" clip-rule="evenodd" d="M727.89 443.529H747.54C749.43 443.529 751.07 444.259 751.2 445.139C751.67 448.199 752.13 451.319 752.62 454.489C752.75 455.399 751.3 456.169 749.34 456.169H729.08C727.17 456.169 725.49 455.399 725.41 454.489C725.14 451.319 724.87 448.209 724.6 445.139C724.53 444.259 726 443.529 727.89 443.529Z" fill="#F6FEFF"/><path fill-rule="evenodd" clip-rule="evenodd" d="M765.41 443H791C793.44 443 795.67 443.92 796 445.06C797 449.06 798.11 453.16 799.21 457.33C799.52 458.54 797.72 459.55 795.21 459.55H768.51C765.97 459.55 763.68 458.55 763.51 457.32C762.78 453.16 762.05 449.06 761.35 445.06C761.1 443.87 763 443 765.41 443Z" fill="#E0E5FF"/><path fill-rule="evenodd" clip-rule="evenodd" d="M768.48 443.529H788.13C789.98 443.529 791.74 444.259 791.96 445.139C792.727 448.199 793.51 451.316 794.31 454.489C794.54 455.399 793.11 456.169 791.21 456.169H770.94C768.94 456.169 767.27 455.399 767.1 454.489L765.36 445.139C765.2 444.259 766.59 443.529 768.48 443.529Z" fill="#F6FEFF"/><path fill-rule="evenodd" clip-rule="evenodd" d="M805.9 443H831.43C833.88 443 836.25 443.92 836.66 445.06L841.1 457.33C841.54 458.54 839.79 459.55 837.24 459.55H810.66C808.11 459.55 805.77 458.55 805.44 457.33C804.28 453.16 803.15 449.06 802.04 445.06C801.73 443.87 803.46 443 805.9 443Z" fill="#76A2C3"/><path fill-rule="evenodd" clip-rule="evenodd" d="M809 443.529H828.65C830.54 443.529 832.33 444.259 832.65 445.139L835.95 454.489C836.27 455.399 834.95 456.169 833.01 456.169H812.76C810.85 456.169 809.01 455.399 808.76 454.489C807.847 451.323 806.953 448.206 806.08 445.139C805.82 444.259 807.18 443.529 809 443.529Z" fill="#F6FEFF"/><path fill-rule="evenodd" clip-rule="evenodd" d="M471.44 463.189H498.2C500.82 463.189 502.46 464.189 501.9 465.469C499.967 469.889 498 474.399 496 478.999C495.4 480.339 492.74 481.449 490 481.449H462C459.27 481.449 457.69 480.339 458.39 478.999L465.5 465.459C466.21 464.209 468.83 463.189 471.44 463.189Z" fill="#E0E5FF"/><path fill-rule="evenodd" clip-rule="evenodd" d="M474.21 463.84H494.8C496.8 463.84 498.09 464.62 497.65 465.6C496.13 468.987 494.58 472.433 493 475.94C492.55 476.94 490.47 477.79 488.41 477.79H467.15C465.15 477.79 463.82 476.96 464.34 475.94L469.67 465.6C470.17 464.62 472.22 463.84 474.21 463.84Z" fill="#F6FEFF"/><path fill-rule="evenodd" clip-rule="evenodd" d="M514 463.189H540.81C543.38 463.189 545.17 464.189 544.74 465.469C543.24 469.889 541.707 474.403 540.14 479.009C539.68 480.349 537.08 481.459 534.4 481.459H506.4C503.72 481.459 501.97 480.349 502.54 479.009L508.3 465.469C508.83 464.209 511.39 463.189 514 463.189Z" fill="#E0E5FF"/><path fill-rule="evenodd" clip-rule="evenodd" d="M516.8 463.84H537.43C539.43 463.84 540.75 464.62 540.43 465.6C539.243 468.987 538.04 472.433 536.82 475.94C536.47 476.94 534.52 477.79 532.46 477.79H511.13C509.07 477.79 507.77 476.96 508.18 475.94C509.64 472.433 511.07 468.987 512.47 465.6C512.88 464.62 514.81 463.84 516.8 463.84Z" fill="#F6FEFF"/><path fill-rule="evenodd" clip-rule="evenodd" d="M556.53 463.189H583.29C585.91 463.189 587.75 464.189 587.44 465.469C586.39 469.899 585.3 474.399 584.2 479.009C583.88 480.349 581.44 481.469 578.7 481.469H550.79C548.06 481.469 546.25 480.349 546.69 479.009C548.177 474.396 549.64 469.883 551.08 465.469C551.5 464.209 553.91 463.189 556.53 463.189Z" fill="#E0E5FF"/><path fill-rule="evenodd" clip-rule="evenodd" d="M559.43 463.84H580C582 463.84 583.39 464.62 583.15 465.6C582.3 468.99 581.45 472.43 580.57 475.94C580.32 476.94 578.46 477.79 576.4 477.79H555.16C553.1 477.79 551.66 476.96 551.98 475.94C553.08 472.433 554.163 468.987 555.23 465.6C555.54 464.62 557.44 463.84 559.43 463.84Z" fill="#F6FEFF"/><path fill-rule="evenodd" clip-rule="evenodd" d="M599 463.189H625.81C628.38 463.189 630.33 464.189 630.15 465.469C629.54 469.899 628.91 474.399 628.26 479.009C628.08 480.349 625.74 481.469 623.06 481.469H595.06C592.38 481.469 590.41 480.349 590.71 479.009C591.71 474.399 592.76 469.899 593.71 465.469C594.11 464.209 596.47 463.189 599 463.189Z" fill="#76A2C3"/><path fill-rule="evenodd" clip-rule="evenodd" d="M602 463.84H622.64C624.64 463.84 626.11 464.62 625.97 465.6C625.463 468.987 624.95 472.433 624.43 475.94C624.28 476.94 622.5 477.79 620.43 477.79H599.14C597.08 477.79 595.61 476.96 595.82 475.94C596.58 472.43 597.32 469 598.04 465.6C598.25 464.62 600 463.84 602 463.84Z" fill="#F6FEFF"/><path fill-rule="evenodd" clip-rule="evenodd" d="M641.56 463.189H668.37C670.99 463.189 673.03 464.189 672.98 465.469C672.81 469.899 672.64 474.399 672.45 479.009C672.4 480.349 670.18 481.469 667.45 481.469H639.45C636.77 481.469 634.74 480.349 634.9 479.009C635.47 474.399 636.04 469.899 636.59 465.469C636.78 464.209 639 463.189 641.56 463.189Z" fill="#76A2C3"/><path fill-rule="evenodd" clip-rule="evenodd" d="M644.64 463.84H665.23C667.23 463.84 668.79 464.62 668.74 465.6C668.57 469 668.4 472.44 668.23 475.94C668.18 476.94 666.49 477.79 664.43 477.79H643.17C641.11 477.79 639.5 476.96 639.62 475.94C640.02 472.44 640.413 468.993 640.8 465.6C640.91 464.62 642.65 463.84 644.64 463.84Z" fill="#F6FEFF"/><path fill-rule="evenodd" clip-rule="evenodd" d="M684.13 463.189H710.93C713.5 463.189 715.65 464.189 715.73 465.469C715.99 469.899 716.27 474.399 716.55 479.009C716.63 480.349 714.55 481.469 711.85 481.469H683.85C681.17 481.469 678.97 480.349 679 479.009C679.11 474.399 679.22 469.899 679.33 465.469C679.4 464.209 681.56 463.189 684.13 463.189Z" fill="#E0E5FF"/><path fill-rule="evenodd" clip-rule="evenodd" d="M687.23 463.84H707.86C709.86 463.84 711.5 464.62 711.54 465.6C711.72 468.99 711.89 472.44 712.07 475.94C712.07 476.94 710.51 477.79 708.46 477.79H687.15C685.09 477.79 683.45 476.96 683.46 475.94C683.507 472.44 683.557 468.993 683.61 465.6C683.62 464.62 685.24 463.84 687.23 463.84Z" fill="#F6FEFF"/><path fill-rule="evenodd" clip-rule="evenodd" d="M726.64 463.189H753.45C756.02 463.189 758.32 464.189 758.52 465.469C759.23 469.899 759.97 474.399 760.71 479.009C760.92 480.349 758.88 481.469 756.2 481.469H728.2C725.52 481.469 723.26 480.349 723.2 479.009C722.85 474.399 722.5 469.899 722.2 465.469C722.06 464.209 724.07 463.189 726.64 463.189Z" fill="#E0E5FF"/><path fill-rule="evenodd" clip-rule="evenodd" d="M729.81 463.84H750.44C752.44 463.84 754.15 464.62 754.3 465.6C754.81 469 755.3 472.44 755.87 475.94C756.02 476.94 754.49 477.79 752.44 477.79H731.12C729.12 477.79 727.34 476.96 727.25 475.94C726.95 472.44 726.653 468.993 726.36 465.6C726.28 464.62 727.86 463.84 729.81 463.84Z" fill="#F6FEFF"/><path fill-rule="evenodd" clip-rule="evenodd" d="M769.21 463.189H796C798.57 463.189 800.92 464.189 801.25 465.469C802.4 469.899 803.59 474.399 804.79 479.009C805.14 480.349 803.26 481.469 800.57 481.469H772.57C769.89 481.469 767.47 480.349 767.23 479.009C766.42 474.399 765.62 469.899 764.85 465.469C764.69 464.209 766.64 463.189 769.21 463.189Z" fill="#E0E5FF"/><path fill-rule="evenodd" clip-rule="evenodd" d="M772.44 463.84H793.07C795.02 463.84 796.87 464.62 797.07 465.6L799.67 475.94C799.93 476.94 798.43 477.79 796.42 477.79H775.15C773.09 477.79 771.28 476.96 771.15 475.94C770.483 472.44 769.84 468.993 769.22 465.6C769 464.62 770.45 463.84 772.44 463.84Z" fill="#F6FEFF"/><path fill-rule="evenodd" clip-rule="evenodd" d="M811.72 463.189H838.54C841.1 463.189 843.6 464.189 844.06 465.469L849 478.999C849.49 480.339 847.66 481.459 845 481.459H817C814.32 481.459 811.84 480.339 811.47 478.999C810.2 474.389 808.94 469.889 807.72 465.459C807.35 464.209 809.15 463.189 811.72 463.189Z" fill="#76A2C3"/><path fill-rule="evenodd" clip-rule="evenodd" d="M815 463.84H835.64C837.64 463.84 839.5 464.62 839.85 465.6C841.037 469 842.25 472.447 843.49 475.94C843.84 476.94 842.49 477.79 840.42 477.79H819.13C817.13 477.79 815.13 476.96 814.89 475.94L811.89 465.6C811.65 464.62 813.08 463.84 815 463.84Z" fill="#F6FEFF"/><path fill-rule="evenodd" clip-rule="evenodd" d="M460.56 484.31H488.74C491.49 484.31 493.19 485.43 492.58 486.82L486 501.87C485.34 503.37 482.5 504.61 479.62 504.61H450.13C447.25 504.61 445.6 503.37 446.39 501.87L454.29 486.82C455 485.43 457.81 484.31 460.56 484.31Z" fill="#E0E5FF"/><path fill-rule="evenodd" clip-rule="evenodd" d="M462.83 486.29H484.51C486.6 486.29 487.95 487.16 487.51 488.23L482.35 499.71C481.84 500.85 479.62 501.77 477.45 501.77H455C452.84 501.77 451.52 500.85 452.11 499.71C454.11 495.81 456.08 491.983 458.02 488.23C458.55 487.16 460.74 486.29 462.83 486.29Z" fill="#F6FEFF"/><path fill-rule="evenodd" clip-rule="evenodd" d="M504.69 485.569H532.92C535.62 485.569 537.48 486.699 537.01 488.089C535.343 493.003 533.64 498.003 531.9 503.089C531.39 504.589 528.62 505.829 525.8 505.829H496.29C493.46 505.829 491.64 504.599 492.29 503.089L498.68 488.089C499.26 486.699 502 485.569 504.69 485.569Z" fill="#E0E5FF"/><path fill-rule="evenodd" clip-rule="evenodd" d="M507.67 486.29H529.39C531.49 486.29 532.86 487.16 532.5 488.23C531.167 491.99 529.833 495.817 528.5 499.71C528.1 500.85 526.03 501.77 523.86 501.77H501.37C499.2 501.77 497.84 500.85 498.31 499.71L503.08 488.23C503.52 487.17 505.57 486.29 507.67 486.29Z" fill="#F6FEFF"/><path fill-rule="evenodd" clip-rule="evenodd" d="M549.51 485.569H577.68C580.43 485.569 582.35 486.699 582.02 488.089C580.853 493.003 579.653 498.003 578.42 503.089C578.06 504.589 575.47 505.829 572.59 505.829H543.14C540.25 505.829 538.36 504.599 538.85 503.089C540.51 497.976 542.14 492.976 543.74 488.089C544.19 486.699 546.75 485.569 549.51 485.569Z" fill="#E0E5FF"/><path fill-rule="evenodd" clip-rule="evenodd" d="M552.55 486.3H574.22C576.32 486.3 577.79 487.16 577.52 488.23C576.58 491.99 575.627 495.816 574.66 499.71C574.38 500.85 572.4 501.77 570.23 501.77H547.8C545.63 501.77 544.13 500.85 544.49 499.71C545.71 495.81 546.913 491.983 548.1 488.23C548.44 487.16 550.45 486.3 552.55 486.3Z" fill="#F6FEFF"/><path fill-rule="evenodd" clip-rule="evenodd" d="M594.26 485.569H622.49C625.19 485.569 627.23 486.699 627.04 488.089C626.373 493.003 625.673 498.003 624.94 503.089C624.73 504.599 622.26 505.829 619.43 505.829H589.93C587.1 505.829 585.03 504.589 585.37 503.089C586.51 497.976 587.637 492.976 588.75 488.089C589.06 486.699 591.56 485.569 594.26 485.569Z" fill="#76A2C3"/><path fill-rule="evenodd" clip-rule="evenodd" d="M597.38 486.3H619.11C621.2 486.3 622.76 487.16 622.6 488.23L620.89 499.71C620.72 500.85 618.83 501.77 616.66 501.77H594.18C592.02 501.77 590.47 500.85 590.72 499.71C591.547 495.81 592.367 491.983 593.18 488.23C593.41 487.16 595.28 486.3 597.38 486.3Z" fill="#F6FEFF"/><path fill-rule="evenodd" clip-rule="evenodd" d="M639 485.569H667.23C669.98 485.569 672.13 486.699 672.08 488.089C671.88 493.003 671.683 498.003 671.49 503.089C671.43 504.599 669.09 505.829 666.21 505.829H636.72C633.89 505.829 631.72 504.589 631.94 503.089C632.567 497.976 633.19 492.976 633.81 488.089C634 486.699 636.32 485.569 639 485.569Z" fill="#76A2C3"/><path fill-rule="evenodd" clip-rule="evenodd" d="M642.26 486.3H663.94C666.03 486.3 667.68 487.17 667.63 488.23C667.443 491.99 667.253 495.816 667.06 499.71C667 500.85 665.21 501.77 663.06 501.77H640.62C638.45 501.77 636.76 500.85 636.89 499.71C637.343 495.81 637.783 491.983 638.21 488.23C638.33 487.16 640.17 486.3 642.26 486.3Z" fill="#F6FEFF"/><path fill-rule="evenodd" clip-rule="evenodd" d="M683.83 485.569H712.05C714.76 485.569 717.05 486.699 717.11 488.089C717.397 493.003 717.7 498.003 718.02 503.089C718.11 504.599 715.9 505.829 713.07 505.829H683.56C680.74 505.829 678.42 504.599 678.45 503.089C678.577 497.976 678.7 492.976 678.82 488.089C678.85 486.699 681.13 485.569 683.83 485.569Z" fill="#E0E5FF"/><path fill-rule="evenodd" clip-rule="evenodd" d="M687.09 486.3H708.82C710.91 486.3 712.65 487.16 712.7 488.23C712.887 491.99 713.08 495.816 713.28 499.71C713.34 500.85 711.65 501.77 709.48 501.77H687C684.83 501.77 683.1 500.85 683.11 499.71C683.11 495.81 683.22 491.99 683.27 488.23C683.3 487.17 685 486.3 687.09 486.3Z" fill="#F6FEFF"/><path fill-rule="evenodd" clip-rule="evenodd" d="M728.59 485.569H756.81C759.51 485.569 761.95 486.699 762.17 488.089C762.963 493.003 763.77 498.003 764.59 503.089C764.83 504.599 762.69 505.829 759.86 505.829H730.35C727.53 505.829 725.14 504.599 725.02 503.089C724.627 497.976 724.247 492.976 723.88 488.089C723.78 486.699 725.88 485.569 728.59 485.569Z" fill="#E0E5FF"/><path fill-rule="evenodd" clip-rule="evenodd" d="M731.92 486.3H753.65C755.74 486.3 757.56 487.17 757.72 488.23L759.46 499.71C759.63 500.85 758.03 501.77 755.86 501.77H733.38C731.27 501.77 729.38 500.85 729.29 499.71C728.963 495.81 728.63 491.983 728.29 488.23C728.22 487.16 729.88 486.3 731.92 486.3Z" fill="#F6FEFF"/><path fill-rule="evenodd" clip-rule="evenodd" d="M773.4 485.569H801.62C804.33 485.569 806.82 486.699 807.18 488.089C808.46 493.003 809.77 498.003 811.11 503.089C811.5 504.599 809.53 505.829 806.71 505.829H777.2C774.37 505.829 771.81 504.599 771.54 503.089C770.64 497.976 769.757 492.976 768.89 488.089C768.65 486.699 770.69 485.569 773.4 485.569Z" fill="#E0E5FF"/><path fill-rule="evenodd" clip-rule="evenodd" d="M776.81 486.3H798.53C800.58 486.3 802.53 487.17 802.8 488.23C803.74 491.99 804.703 495.816 805.69 499.71C805.97 500.85 804.41 501.77 802.3 501.77H779.82C777.65 501.77 775.73 500.85 775.52 499.71C774.787 495.81 774.073 491.983 773.38 488.23C773.19 487.16 774.71 486.3 776.81 486.3Z" fill="#F6FEFF"/><path fill-rule="evenodd" clip-rule="evenodd" d="M818.16 485.569H846.38C849.08 485.569 851.74 486.689 852.24 488.079C854.02 492.993 855.833 497.993 857.68 503.079C858.23 504.589 856.33 505.819 853.5 505.819H824C821.17 505.819 818.54 504.579 818.13 503.079C816.71 497.966 815.323 492.966 813.97 488.079C813.57 486.699 815.45 485.569 818.16 485.569Z" fill="#E0E5FF"/><path fill-rule="evenodd" clip-rule="evenodd" d="M821.64 486.3H843.36C845.46 486.3 847.45 487.16 847.83 488.23L851.83 499.71C852.23 500.85 850.83 501.77 848.65 501.77H826.2C824.09 501.77 822.02 500.85 821.69 499.71C820.583 495.81 819.49 491.983 818.41 488.23C818.1 487.17 819.59 486.3 821.64 486.3Z" fill="#F6FEFF"/><path fill-rule="evenodd" clip-rule="evenodd" d="M698.24 488.7C702.91 488.7 706.69 490.8 706.69 493.39C706.69 495.98 702.91 498.09 698.24 498.09C693.57 498.09 689.8 495.99 689.8 493.39C689.8 490.79 693.58 488.7 698.24 488.7Z" fill="#76A2C3"/><path fill-rule="evenodd" clip-rule="evenodd" d="M743.89 488.7C748.55 488.7 752.33 490.8 752.33 493.39C752.33 495.98 748.55 498.09 743.89 498.09C739.23 498.09 735.44 495.99 735.44 493.39C735.44 490.79 739.22 488.7 743.89 488.7Z" fill="#76A2C3"/><path fill-rule="evenodd" clip-rule="evenodd" d="M652.26 488.7C656.92 488.7 660.7 490.8 660.7 493.39C660.7 495.98 656.92 498.09 652.26 498.09C647.6 498.09 643.81 495.99 643.81 493.39C643.81 490.79 647.59 488.7 652.26 488.7Z" fill="#76A2C3"/><path fill-rule="evenodd" clip-rule="evenodd" d="M604.34 466.749C606.28 465.509 609.11 465.509 610.62 466.749L610.72 466.829L610.85 466.749C612.8 465.509 615.62 465.509 617.13 466.749C618.65 467.979 618.3 469.999 616.36 471.239L609.18 475.809L603.57 471.239C602.05 469.999 602.4 467.999 604.34 466.749Z" fill="#D56C96"/><path fill-rule="evenodd" clip-rule="evenodd" d="M610.23 445.89H622C623.14 445.89 624 446.33 623.92 446.89C623.64 448.73 623.36 450.61 623.08 452.51C623 453.06 621.98 453.51 620.81 453.51H608.66C607.49 453.51 606.66 453.06 606.76 452.51C607.17 450.61 607.57 448.73 607.97 446.89C608.08 446.33 609.09 445.89 610.23 445.89Z" fill="#4CB7FF"/><path fill-rule="evenodd" clip-rule="evenodd" d="M563.45 466.08H575.27C576.41 466.08 577.21 466.52 577.08 467.08C576.6 468.927 576.113 470.8 575.62 472.7C575.48 473.25 574.42 473.7 573.24 473.7H561.06C559.88 473.7 559.06 473.24 559.26 472.7L561.09 467.08C561.26 466.52 562.31 466.08 563.45 466.08Z" fill="#4CB7FF"/><path fill-rule="evenodd" clip-rule="evenodd" d="M783.87 442.84H772.05C770.91 442.84 770.11 443.28 770.24 443.84C770.72 445.69 771.24 447.56 771.7 449.47C771.84 450.02 772.9 450.47 774.08 450.47H786.26C787.44 450.47 788.26 450.02 788.06 449.47L786.23 443.84C786.06 443.28 785 442.84 783.87 442.84Z" fill="#A7DE7C"/><path fill-rule="evenodd" clip-rule="evenodd" d="M794.66 489.74H782.84C781.7 489.74 780.9 490.18 781.03 490.74C781.51 492.59 782.03 494.46 782.49 496.37C782.63 496.92 783.7 497.37 784.87 497.37H797.05C798.23 497.37 799.05 496.92 798.85 496.37L797 490.7C796.85 490.18 795.8 489.74 794.66 489.74Z" fill="#00C4DB"/><path d="M341.21 541.5C341.21 541.5 342.21 542.18 343.75 543.42Z" fill="#4E4C4D"/><path d="M341.21 541.5C341.21 541.5 342.21 542.18 343.75 543.42Z" fill="#3A3839"/><path d="M9.52 157.15L25 162.35V171L0 160.86V153.34L25 143.17V151.82L9.52 157.16V157.15Z" fill="white"/><path d="M34.13 177.89H27.37L41.42 133.21H48.21L34.13 177.89Z" fill="white"/><path d="M67 157.069L51.62 151.839V143.189L76.5 153.349V160.869L51.65 170.999V162.349L67 157.049V157.069Z" fill="white"/><path d="M1272.1 222.62L1265.32 220.74C1265.47 218.31 1265.19 215.872 1264.49 213.54L1270.63 210.21C1270.7 210.171 1270.77 210.113 1270.82 210.043C1270.86 209.972 1270.89 209.891 1270.9 209.807C1270.91 209.722 1270.89 209.637 1270.86 209.559C1270.83 209.481 1270.78 209.413 1270.71 209.36C1269.69 208.494 1268.85 207.442 1268.22 206.26C1267.51 205.132 1267.04 203.874 1266.82 202.56C1266.81 202.476 1266.77 202.397 1266.72 202.328C1266.67 202.26 1266.61 202.205 1266.53 202.167C1266.45 202.13 1266.37 202.112 1266.28 202.114C1266.2 202.116 1266.11 202.139 1266.04 202.18L1259.93 205.51C1258.26 203.674 1256.28 202.141 1254.09 200.98L1256.01 194.43C1256.03 194.348 1256.03 194.262 1256.01 194.179C1255.99 194.097 1255.96 194.02 1255.9 193.955C1255.85 193.891 1255.78 193.84 1255.7 193.808C1255.62 193.776 1255.53 193.763 1255.45 193.77C1252.73 193.859 1250.05 193.116 1247.77 191.64C1247.7 191.59 1247.62 191.558 1247.54 191.545C1247.45 191.532 1247.37 191.54 1247.29 191.567C1247.21 191.595 1247.13 191.641 1247.08 191.703C1247.02 191.764 1246.97 191.839 1246.95 191.92L1245.04 198.45C1242.53 198.303 1240.02 198.584 1237.61 199.28L1234.23 193.36C1234.19 193.285 1234.13 193.221 1234.06 193.175C1233.98 193.128 1233.9 193.099 1233.82 193.091C1233.73 193.083 1233.64 193.096 1233.56 193.129C1233.49 193.162 1233.41 193.214 1233.36 193.28C1232.46 194.278 1231.37 195.098 1230.17 195.7C1229 196.384 1227.72 196.848 1226.38 197.07C1226.3 197.079 1226.21 197.109 1226.14 197.157C1226.07 197.204 1226.02 197.269 1225.98 197.345C1225.94 197.42 1225.92 197.504 1225.92 197.589C1225.92 197.674 1225.95 197.756 1225.99 197.83L1229.38 203.76C1227.51 205.378 1225.94 207.314 1224.74 209.48L1218.03 207.62C1217.95 207.595 1217.86 207.591 1217.78 207.607C1217.7 207.623 1217.62 207.659 1217.55 207.713C1217.49 207.766 1217.43 207.835 1217.4 207.913C1217.37 207.991 1217.35 208.076 1217.36 208.16C1217.46 209.483 1217.29 210.812 1216.87 212.07C1216.54 213.36 1215.96 214.574 1215.18 215.65C1215.13 215.716 1215.09 215.793 1215.08 215.876C1215.06 215.959 1215.07 216.045 1215.1 216.124C1215.12 216.204 1215.17 216.276 1215.23 216.333C1215.29 216.39 1215.37 216.43 1215.45 216.45L1222.17 218.32C1222.03 220.757 1222.32 223.2 1223.05 225.53L1216.93 228.86C1216.86 228.898 1216.79 228.955 1216.74 229.024C1216.7 229.094 1216.67 229.174 1216.66 229.258C1216.65 229.342 1216.66 229.426 1216.7 229.504C1216.73 229.581 1216.78 229.648 1216.85 229.7C1217.86 230.574 1218.7 231.629 1219.33 232.81C1220.04 233.939 1220.51 235.196 1220.73 236.51C1220.74 236.595 1220.78 236.674 1220.83 236.743C1220.88 236.811 1220.94 236.866 1221.02 236.903C1221.1 236.94 1221.18 236.957 1221.27 236.953C1221.35 236.949 1221.44 236.924 1221.51 236.88L1227.65 233.55C1229.32 235.366 1231.29 236.881 1233.48 238.03L1231.55 244.64C1231.53 244.722 1231.53 244.808 1231.55 244.89C1231.56 244.972 1231.6 245.049 1231.66 245.113C1231.71 245.177 1231.78 245.226 1231.86 245.257C1231.94 245.288 1232.03 245.299 1232.11 245.29C1233.46 245.206 1234.82 245.372 1236.11 245.78C1237.43 246.093 1238.67 246.653 1239.78 247.43C1239.85 247.48 1239.93 247.513 1240.01 247.526C1240.1 247.539 1240.18 247.533 1240.26 247.506C1240.34 247.48 1240.42 247.435 1240.48 247.375C1240.54 247.315 1240.58 247.241 1240.61 247.16L1242.55 240.53C1245.03 240.667 1247.52 240.383 1249.9 239.69L1253.34 245.69C1253.38 245.763 1253.44 245.825 1253.52 245.871C1253.59 245.916 1253.67 245.944 1253.75 245.952C1253.84 245.96 1253.93 245.947 1254 245.916C1254.08 245.884 1254.15 245.834 1254.21 245.77C1256.09 243.81 1258.54 242.485 1261.21 241.98C1261.29 241.968 1261.37 241.936 1261.44 241.887C1261.51 241.837 1261.57 241.771 1261.6 241.695C1261.64 241.62 1261.66 241.536 1261.66 241.451C1261.65 241.367 1261.63 241.284 1261.59 241.21L1258.15 235.21C1260 233.611 1261.55 231.699 1262.74 229.56L1269.54 231.45C1269.62 231.475 1269.71 231.479 1269.79 231.463C1269.87 231.447 1269.95 231.411 1270.02 231.358C1270.08 231.304 1270.14 231.236 1270.17 231.158C1270.2 231.08 1270.22 230.995 1270.21 230.91C1270.12 229.587 1270.29 228.26 1270.7 227C1271.03 225.712 1271.61 224.497 1272.39 223.42C1272.44 223.355 1272.48 223.277 1272.49 223.194C1272.51 223.111 1272.5 223.026 1272.47 222.946C1272.45 222.866 1272.4 222.794 1272.34 222.737C1272.28 222.681 1272.2 222.64 1272.12 222.62H1272.1ZM1252.51 214.79C1253.15 215.911 1253.55 217.148 1253.71 218.429C1253.86 219.709 1253.75 221.007 1253.39 222.245C1253.03 223.483 1252.42 224.636 1251.6 225.635C1250.79 226.634 1249.78 227.458 1248.64 228.06C1246.32 229.321 1243.61 229.631 1241.07 228.926C1238.53 228.22 1236.36 226.554 1235.03 224.28C1234.39 223.159 1233.98 221.921 1233.83 220.639C1233.68 219.358 1233.79 218.059 1234.15 216.819C1234.51 215.58 1235.12 214.427 1235.93 213.427C1236.75 212.427 1237.76 211.602 1238.9 211C1241.21 209.739 1243.93 209.426 1246.47 210.13C1249.01 210.834 1251.17 212.498 1252.51 214.77V214.79Z" fill="#CCE6FF"/><path opacity="0.75" d="M285.13 725.68C312.42 702.91 326.13 690.33 343.02 654.03C353.588 631.528 366.102 609.993 380.42 589.67L329.59 594.51L230.59 672.03L190.18 712.27L285.13 725.68Z" fill="#152F46"/><path opacity="0.75" d="M885.24 591.719C902.43 601.809 909.71 632.219 926.02 665.599C936.015 685.928 948.805 704.757 964.02 721.539L1048.18 715.179C1048.18 715.179 973.08 617.929 951.18 599.459C929.28 580.989 885.24 591.719 885.24 591.719Z" fill="#152F46"/><path opacity="0.75" d="M770.27 483.249C764.93 486.249 762.17 489.029 771.42 493.079C780.67 497.129 790.51 499.439 795.72 504.649C800.93 509.859 783.57 508.649 776.63 514.479C769.69 520.309 781.26 535.299 791.09 543.969C800.92 552.639 814.8 556.119 818.85 568.269C822.9 580.419 827.53 582.149 827.53 582.149C827.53 582.149 874.95 586.199 881.89 589.089C888.83 591.979 891.96 580.799 894.16 573.669C896.36 566.539 892.88 531.249 882.47 518.529C872.06 505.809 836.55 504.349 824 498.309C811.45 492.269 775.34 480.359 770.27 483.249Z" fill="#152F46"/><mask id="mask0_61_883" style="mask-type:luminance" maskUnits="userSpaceOnUse" x="764" y="459" width="371" height="272"><path d="M980.14 566.92C974.9 562.47 947.14 528.09 940.99 521.49C933.36 513.24 913.05 484.19 907.51 475.33C901.97 466.47 894.83 465 890.4 465C885.97 465 884.49 467.21 879.32 466.84C874.15 466.47 868.61 459.84 860.12 459.84C851.63 459.84 852.73 464.27 846.45 463.9C840.17 463.53 833.53 459.47 827.62 463.53C821.71 467.59 822.45 470.92 819.49 470.18C816.53 469.44 787.36 469.44 780.35 470.92C773.34 472.4 764.84 476.09 764.47 481.26C764.1 486.43 767.79 487.91 778.13 486.43C788.47 484.95 808.41 487.54 813.95 487.54C813.95 487.54 809.52 499.72 809.89 503.79C810.26 507.86 815.43 509.69 820.97 508.59C823.742 508.102 826.464 507.359 829.1 506.37C829.1 506.37 830.2 510.8 836.48 510.43C842.76 510.06 847.56 513.76 847.56 518.19C847.56 522.62 842.39 520.4 836.11 520.4C829.83 520.4 820.6 524.1 814.69 521.14C808.78 518.18 791.8 510 785.52 509.3C779.24 508.6 768.9 516 780 528.14C791.1 540.28 808.07 543.28 817.3 550.67C826.53 558.06 840.2 575.04 861.61 577.67C883.02 580.3 895.61 578.03 905.93 588.01C909.45 591.4 920.93 602.49 934.42 615.64C934.42 615.64 962.42 651.64 985.08 677.25C1007.74 702.86 1053.19 730.93 1053.19 730.93L1134.78 703.35C1134.78 703.35 1089.82 660 980.14 566.92Z" fill="white"/></mask><g mask="url(#mask0_61_883)"><path d="M980.14 566.92C974.9 562.47 947.14 528.09 940.99 521.49C933.36 513.24 913.05 484.19 907.51 475.33C901.97 466.47 894.83 465 890.4 465C885.97 465 884.49 467.21 879.32 466.84C874.15 466.47 868.61 459.84 860.12 459.84C851.63 459.84 852.73 464.27 846.45 463.9C840.17 463.53 833.53 459.47 827.62 463.53C821.71 467.59 822.45 470.92 819.49 470.18C816.53 469.44 787.36 469.44 780.35 470.92C773.34 472.4 764.84 476.09 764.47 481.26C764.1 486.43 767.79 487.91 778.13 486.43C788.47 484.95 808.41 487.54 813.95 487.54C813.95 487.54 809.52 499.72 809.89 503.79C810.26 507.86 815.43 509.69 820.97 508.59C823.742 508.102 826.464 507.359 829.1 506.37C829.1 506.37 830.2 510.8 836.48 510.43C842.76 510.06 847.56 513.76 847.56 518.19C847.56 522.62 842.39 520.4 836.11 520.4C829.83 520.4 820.6 524.1 814.69 521.14C808.78 518.18 791.8 510 785.52 509.3C779.24 508.6 768.9 516 780 528.14C791.1 540.28 808.07 543.28 817.3 550.67C826.53 558.06 840.2 575.04 861.61 577.67C883.02 580.3 895.61 578.03 905.93 588.01C909.45 591.4 920.93 602.49 934.42 615.64C934.42 615.64 962.42 651.64 985.08 677.25C1007.74 702.86 1053.19 730.93 1053.19 730.93L1134.78 703.35C1134.78 703.35 1089.82 660 980.14 566.92Z" fill="#F5C5B3"/><path d="M814 487.52C819.91 487.7 834.32 491.21 838.38 491.58C842.44 491.95 847.98 505.24 847.8 511.71C847.62 518.18 849.27 517.8 846.32 518.71C843.37 519.62 815.43 513 811 511.52C806.57 510.04 802.88 504.69 802.88 504.69L800.11 493.61L814 487.52Z" fill="#F0A694"/><path d="M776.63 519L784.17 510.14C784.17 510.14 794.17 514.36 794.86 519.14C795.55 523.92 792.76 525.85 787.07 525.26C781.38 524.67 776.63 519 776.63 519Z" fill="#F6F6F6"/></g><path opacity="0.75" d="M379.69 583.4C397.79 574.78 420.35 580.99 439.44 578.1C458.53 575.21 473.82 550.92 485.08 542.24C496.34 533.56 515.75 521.84 516.92 513.24C518.09 504.64 510.71 501.5 501.1 503.65C491.49 505.8 485 501.18 494 494.23C503 487.28 516.18 475.89 501.93 478.04C487.68 480.19 476.74 482.64 476.74 482.64C476.74 482.64 442.9 485.56 424.39 499.44C405.88 513.32 357.3 574.63 357.3 574.63L379.69 583.4Z" fill="#152F46"/><mask id="mask1_61_883" style="mask-type:luminance" maskUnits="userSpaceOnUse" x="139" y="440" width="384" height="289"><path d="M304.19 554.46C309.76 549.73 339.3 513.19 345.8 506.18C353.91 497.41 375.49 466.54 381.38 457.12C387.27 447.7 394.86 446.12 399.57 446.12C404.28 446.12 405.85 448.47 411.34 448.12C416.83 447.77 422.72 440.66 431.75 440.66C440.78 440.66 439.6 445.37 446.27 444.98C452.94 444.59 460.01 440.27 466.27 444.59C472.53 448.91 471.77 452.44 474.91 451.65C478.05 450.86 490.16 452.76 497.62 454.33C505.08 455.9 517.9 465.46 518.3 471C518.7 476.54 512.82 478.17 501.05 472.73C490.98 468.07 486.7 470.12 480.81 470.12C480.81 470.12 485.52 483.07 485.13 487.39C484.74 491.71 479.24 493.67 473.36 492.49C470.415 491.971 467.523 491.184 464.72 490.14C464.72 490.14 463.54 494.85 456.87 494.45C450.2 494.05 445.1 497.99 445.1 502.7C445.1 507.41 450.59 505.05 457.26 505.05C463.93 505.05 473.75 508.98 480.03 505.84C486.31 502.7 504.36 494.06 511.03 493.28C517.7 492.5 528.7 500.34 516.92 513.28C505.14 526.22 487.09 529.38 477.28 537.28C467.47 545.18 452.95 563.18 430.18 565.93C407.41 568.68 394.07 566.32 383.08 576.93C379.34 580.53 367.2 592.32 352.81 606.29C352.81 606.29 323.03 644.57 298.96 671.78C274.89 698.99 226.57 728.78 226.57 728.78L139.87 699.48C139.87 699.48 187.62 653.36 304.19 554.46Z" fill="white"/></mask><g mask="url(#mask1_61_883)"><path d="M304.19 554.46C309.76 549.73 339.3 513.19 345.8 506.18C353.91 497.41 375.49 466.54 381.38 457.12C387.27 447.7 394.86 446.12 399.57 446.12C404.28 446.12 405.85 448.47 411.34 448.12C416.83 447.77 422.72 440.66 431.75 440.66C440.78 440.66 439.6 445.37 446.27 444.98C452.94 444.59 460.01 440.27 466.27 444.59C472.53 448.91 471.77 452.44 474.91 451.65C478.05 450.86 490.16 452.76 497.62 454.33C505.08 455.9 517.9 465.46 518.3 471C518.7 476.54 515.61 479.82 504.62 478.25C493.63 476.68 486.7 470.12 480.81 470.12C480.81 470.12 485.52 483.07 485.13 487.39C484.74 491.71 479.24 493.67 473.36 492.49C470.415 491.971 467.523 491.184 464.72 490.14C464.72 490.14 463.54 494.85 456.87 494.45C450.2 494.05 445.1 497.99 445.1 502.7C445.1 507.41 450.59 505.05 457.26 505.05C463.93 505.05 473.75 508.98 480.03 505.84C486.31 502.7 504.36 494.06 511.03 493.28C517.7 492.5 528.7 500.34 516.92 513.28C505.14 526.22 487.09 529.38 477.28 537.28C467.47 545.18 452.95 563.18 430.18 565.93C407.41 568.68 394.07 566.32 383.08 576.93C379.34 580.53 367.2 592.32 352.81 606.29C352.81 606.29 323.03 644.57 298.96 671.78C274.89 698.99 226.57 728.78 226.57 728.78L139.87 699.48C139.87 699.48 187.62 653.36 304.19 554.46Z" fill="#F5C5B3"/><path d="M480.81 470.07C474.53 470.27 459.23 474 454.91 474.39C450.59 474.78 444.7 488.91 444.91 495.78C445.12 502.65 443.34 502.25 446.48 503.24C449.62 504.23 479.25 497.15 483.96 495.58C488.67 494.01 492.6 488.32 492.6 488.32L495.54 476.55L480.81 470.07Z" fill="#F0A694"/><path d="M520.48 503.54L512.48 494.13C512.48 494.13 501.83 498.62 501.12 503.65C500.41 508.68 503.36 510.78 509.41 510.15C515.46 509.52 520.48 503.54 520.48 503.54Z" fill="#F6F6F6"/></g><path d="M304.24 553.45C304.24 553.45 328.9 566 331 566.46C333.1 566.92 337.44 563.54 337.44 563.54C337.44 563.54 347.29 564.94 357.87 577.54C357.87 577.54 365.48 570.71 357.87 561.06C350.26 551.41 339.11 543.06 339.11 543.06L304.24 553.45Z" fill="#F0A694"/><path d="M301.87 553.5L329.29 563.56C330.134 563.87 331.05 563.919 331.922 563.701C332.794 563.484 333.58 563.01 334.18 562.34L352.34 542.09C353.073 541.271 353.55 540.254 353.71 539.166C353.87 538.077 353.706 536.966 353.24 535.97L351.59 532.47L320.67 527.07L298.9 544.4L299.36 550.2C299.419 550.933 299.686 551.633 300.131 552.218C300.576 552.803 301.18 553.248 301.87 553.5Z" fill="#3A3839"/><path d="M301.62 548.819L329.56 558.639C330.326 558.907 331.154 558.943 331.941 558.742C332.727 558.541 333.436 558.112 333.98 557.509L351.58 537.999C352.033 537.496 352.356 536.889 352.519 536.231C352.683 535.574 352.682 534.886 352.517 534.229C352.352 533.572 352.028 532.966 351.573 532.464C351.118 531.961 350.547 531.579 349.91 531.349L324.91 522.349C323.536 521.853 322.047 521.768 320.626 522.105C319.205 522.443 317.913 523.188 316.91 524.249L300 542.089C299.525 542.588 299.183 543.197 299.004 543.862C298.825 544.527 298.816 545.226 298.977 545.896C299.138 546.565 299.465 547.183 299.926 547.694C300.388 548.205 300.97 548.592 301.62 548.819Z" fill="#4E4C4D"/><path opacity="0.5" d="M308.85 545.649L327.85 552.329C328.504 552.554 329.209 552.579 329.877 552.401C330.545 552.223 331.145 551.85 331.6 551.329L344.41 537.109C344.559 536.943 344.665 536.742 344.719 536.525C344.773 536.308 344.772 536.081 344.718 535.864C344.664 535.647 344.557 535.446 344.408 535.28C344.258 535.113 344.07 534.986 343.86 534.909L324.26 527.909C323.625 527.68 322.936 527.641 322.279 527.797C321.621 527.954 321.024 528.298 320.56 528.789L308 542.069C307.747 542.334 307.564 542.657 307.468 543.01C307.372 543.363 307.366 543.735 307.45 544.091C307.535 544.447 307.707 544.776 307.952 545.048C308.196 545.321 308.505 545.527 308.85 545.649Z" fill="#B8C5E2"/><path d="M379 585.49L361.83 599.49H361.77C361.77 598.49 361.77 587.18 355.88 577.19C352.62 571.65 347.25 566.88 342.88 563.6C340.638 561.908 338.3 560.345 335.88 558.92L351.39 543.12C351.39 543.12 352.39 543.83 354.01 545.12C358.3 548.48 366.8 555.76 371.47 563.92C375.017 570.061 377.753 576.636 379.61 583.48C379.705 583.839 379.698 584.217 379.59 584.572C379.482 584.927 379.278 585.245 379 585.49Z" fill="#4E4C4D"/><path d="M354.09 545L342.91 563.5C340.668 561.807 338.331 560.245 335.91 558.82L351.42 543.02C351.42 543.02 352.48 543.77 354.09 545Z" fill="#3A3839"/></g><defs><clipPath id="clip0_61_883"><rect width="1297" height="660" fill="white"/></clipPath></defs></svg>